<?xml version="1.0" encoding="utf-8"?>
<!-- Generated by IcoMoon.io -->
<svg version="1.1" xmlns="http://www.w3.org/2000/svg" xmlns:xlink="http://www.w3.org/1999/xlink" width="160" height="128" viewBox="0 0 160 128">
<svg id="icon-babel-plain" width="32" height="32" viewBox="0 0 32 32" x="0" y="0">
<path d="M22.545 12.625v0.037h0.078c0.001-0.039 0.009-0.076 0.023-0.109l-0.001 0.002v-0.068c-0.032 0-0.065 0.053-0.095 0.145zM21.81 10.855v-0.068h-0.11v0.068h0.11zM19.675 14.855c-0.169-0.286-0.363-0.532-0.587-0.749l-0.001-0.001c0-0.080 0.125-0.197 0.398-0.355l0.765-0.665c0.201-0.301 0.32-0.672 0.32-1.070 0-0.005-0-0.011-0-0.016v0.001-0.115c-0.030-0.345-0.28-0.623-0.75-0.835q-0.42-0.283-1.5-0.313c-0.875 0.117-1.669 0.343-2.41 0.667l0.057-0.022c-0.256 0.185-0.552 0.374-0.859 0.547l-0.048 0.025v0.057c0.034-0.007 0.065-0.021 0.091-0.040l-0.001 0c0.004-0.001 0.008-0.002 0.013-0.002 0.029 0 0.053 0.024 0.053 0.053 0 0.001 0 0.001-0 0.002v-0l0.035-0.025h0.027v0.025c-0.184 0.188-0.391 0.354-0.616 0.492l-0.014 0.008 0.033 0.060h-0.027l-0.070-0.025c0 0.020-0.027 0.035-0.085 0.040v0.025l0.068 0.085c-0.036-0.001-0.069-0.009-0.099-0.023l0.002 0.001c-0.117 0.017-0.217 0.074-0.29 0.157l-0 0.001 0.040-0.172c0.113-0.443 0.215-0.995 0.283-1.557l0.007-0.068-0.008-0.047c-0.105-0.070-0.195-0.153-0.271-0.248l-0.002-0.002c0.001-0.018 0.002-0.040 0.002-0.061s-0.001-0.043-0.002-0.064l0 0.003v-0.025h-0.027q-0.463 0.693-1.777 2.362-1 1.188-1.035 1.32c-0.273 0.283-0.402 0.453-0.39 0.5-0.072 0.047-0.102 0.092-0.090 0.145-0.003 0.001-0.007 0.002-0.011 0.002-0.015 0-0.027-0.010-0.029-0.024l-0-0c-0.115 0.185-0.299 0.317-0.515 0.362l-0.005 0.001-0.25 0.055c-0.028 0.004-0.049 0.028-0.049 0.057 0 0.005 0.001 0.009 0.002 0.014l-0-0v0.030l0.090-0.020v0.025l-0.205 0.080-0.363 0.085h-0.19c-0.027 0.027 0.152 0 0.082 0.015l-0.25 0.055c-0.145 0.033-0.223 0.020-0.25-0.037h-0.027c0.002 0.009 0.003 0.019 0.003 0.030s-0.001 0.021-0.004 0.031l0-0.001-0.015-0.057-0.19 0.045q0.018-0.102-0.732-0.925c0-0.107 0.168-0.262 0.53-0.465l1.020-0.897q0.342-0.44 0.408-1.412l-0.015-0.152c-0.040-0.457-0.37-0.825-1-1.11-0.367-0.25-1.030-0.383-1.985-0.402-1.153 0.154-2.198 0.449-3.175 0.87l0.078-0.030c-0.339 0.246-0.729 0.494-1.135 0.719l-0.060 0.031v0.080c0.045-0.008 0.086-0.025 0.121-0.048l-0.001 0.001c0.005-0.001 0.011-0.002 0.018-0.002 0.037 0 0.067 0.030 0.067 0.067v0l0.080-0.045h0.050v0.047c-0.246 0.241-0.52 0.456-0.815 0.638l-0.020 0.012 0.045 0.070h-0.035l-0.085-0.030c0 0.023-0.038 0.040-0.12 0.047v0.043l0.092 0.102c-0.045-0-0.088-0.010-0.127-0.026l0.002 0.001c-0.23 0.050-0.419 0.194-0.528 0.389l-0.002 0.004 0.045 0.070c0.076-0.083 0.163-0.153 0.26-0.21l0.005-0.003v0.115c-0.045 0.010-0.085 0.026-0.122 0.048l0.002-0.001 0.095 0.145c0.178-0.188 0.377-0.353 0.595-0.492l0.013-0.008c0.11 0.027 0.167 0.063 0.17 0.1h0.085c0.512-0.394 1.103-0.721 1.74-0.951l0.045-0.014v0.080q-0.165 0.25-0.223 0.25c0.003 0.057 0.024 0.108 0.058 0.148l-0-0q0.015 0.15-0.803 2.025-1.83 4.322-3.090 6.408c0.008 0.043 0.026 0.081 0.050 0.113l-0-0.001c0.148-0.025 0.28-0.077 0.397-0.152l-0.004 0.002h0.045v0.080h0.078l0.080-0.045c0 0.023 0.027 0.035 0.083 0.030v0.080c-0.011 0.134-0.058 0.256-0.131 0.357l0.001-0.002c-0.114 0.165-0.203 0.358-0.257 0.565l-0.003 0.013v0.038h0.078c0.295-0.319 0.549-0.682 0.752-1.075l0.013-0.027c0.864-0.233 1.612-0.522 2.32-0.877l-0.070 0.032c0.447-0.013 0.857-0.164 1.191-0.412l-0.006 0.004v-0.043l-0.195 0.058h-0.045v-0.043c0.295-0.021 0.566-0.111 0.8-0.254l-0.008 0.004q1.115-0.86 1.685-1.218 1.17-0.86 1.52-1.675l0.13-0.030c0.028 0.002 0.061 0.003 0.094 0.003s0.066-0.001 0.098-0.003l-0.005 0c0-0.020 0-0.032 0.025-0.038 0.175-0.017 0.090 0 0.203-0.015l0.293-0.067h0.050l-0.023 0.015c0.016 0.003 0.035 0.005 0.054 0.005s0.038-0.002 0.056-0.005l-0.002 0 0.020 0.085-1.335 2.122-0.313 0.343-0.145 0.485h0.027l0.145-0.060-0.048 0.188 0.015 0.055 0.040 0.050c-0.018 0-0.025 0.017-0.020 0.038v0.030l0.060-0.015q0.133-0.115 0.113-0.21c0.041 0.011 0.089 0.017 0.138 0.017 0.018 0 0.037-0.001 0.054-0.003l-0.002 0v0.030c-0.057 0.015-0.088 0.060-0.092 0.14v0.030h0.033c0.485-0.53 1.672-2.337 2.625-3.567q-0.045-0.2 1.5-0.555h0.033q0.055 0.25-0.25 1.168c-0.073 0.174-0.134 0.378-0.174 0.59l-0.003 0.020c-0.091 0.227-0.17 0.497-0.225 0.775l-0.005 0.030-0.342 1.172c-0.216 0.541-0.403 1.183-0.529 1.847l-0.011 0.068c0.015-0.003 0.032-0.005 0.050-0.005s0.035 0.002 0.052 0.005l-0.002-0 0.053-0.045c0.003 0.014 0.015 0.024 0.029 0.024 0.004 0 0.007-0.001 0.011-0.002l-0 0-0.020-0.085h0.158c0.047 0 0.085-0.070 0.12-0.177 0-0.16 0.025-0.25 0.098-0.265 0.041-0.219 0.103-0.413 0.187-0.596l-0.007 0.016c0.042-0.244 0.113-0.462 0.209-0.666l-0.007 0.016c0.137-0.5 0.25-0.75 0.303-0.765l0.015 0.060-0.1 0.25c-0.15 0.716-0.333 1.331-0.559 1.924l0.029-0.087 0.053 0.223h0.033q0.65-1.398 1.87-5.535c0.025-0.229 0.155-0.424 0.339-0.538l0.003-0.002-0.047-0.050v-0.025c0.079-0.012 0.147-0.052 0.195-0.11l0-0c0-0.020-0.085-0.053-0.25-0.092l0.405-1.75c0.044-0.047 0.095-0.087 0.152-0.118l0.003-0.002v0.088c-0.034 0.007-0.065 0.021-0.091 0.040l0.001-0 0.078 0.11c0.134-0.143 0.283-0.269 0.446-0.377l0.009-0.006c0.085 0.023 0.125 0.053 0.13 0.080h0.060c0.389-0.298 0.839-0.544 1.323-0.717l0.035-0.011v0.057q-0.122 0.185-0.168 0.188c0.004 0.042 0.017 0.080 0.038 0.114l-0.001-0.001c-0.185 0.603-0.389 1.113-0.63 1.602l0.028-0.062c-0.789 1.939-1.581 3.546-2.468 5.091l0.108-0.204c0.008 0.033 0.023 0.061 0.043 0.085l-0-0c0.111-0.018 0.211-0.059 0.298-0.117l-0.003 0.002h0.027v0.058h0.065l0.057-0.030q0 0.025 0.063 0.020v0.063c-0.009 0.101-0.045 0.191-0.101 0.266l0.001-0.001c-0.095 0.129-0.168 0.281-0.21 0.446l-0.002 0.009v0.030h0.060c0.224-0.242 0.417-0.518 0.57-0.817l0.010-0.021c0.654-0.178 1.219-0.396 1.754-0.665l-0.054 0.025c0.342-0.009 0.655-0.124 0.909-0.313l-0.004 0.003v-0.030l-0.152 0.045h-0.032v-0.030c0.224-0.017 0.429-0.086 0.606-0.196l-0.006 0.003c0.563-0.433 1-0.75 1.28-0.925 0.9-0.655 1.317-1.283 1.268-1.887zM19.52 14.895l0.020 0.235c-0.027 0.057-0.058 0.088-0.085 0.090l-0.035-0.4c0.065 0.023 0.098 0.047 0.1 0.075zM1.88 13h-0.040v-0.072l0.16-0.012v0.037c-0.044 0.008-0.084 0.025-0.119 0.048l0.001-0.001zM1.095 20.85c-0.065-0.034-0.143-0.053-0.224-0.053-0.009 0-0.018 0-0.027 0.001l0.001-0v-0.115c0-0.045 0.020-0.075 0.078-0.085s0.083 0.032 0.085 0.108c0.068-0.093 0.141-0.175 0.221-0.249l0.001-0.001 0.085 0.035c-0.028 0.233-0.1 0.352-0.215 0.36zM9.482 12.075c-0.040 0-0.12-0.12-0.232-0.363v-0.072c0.075 0 0.152 0.115 0.232 0.363v0.072zM9.37 11.205l-0.033 0.078-1.14-0.475q1.14 0.037 1.172 0.398zM4.563 15.338l-0.16 0.015v-0.072l0.16-0.015v0.072zM4.433 12.857h0.040v0.115c-0.037 0-0.085 0.057-0.147 0.165v-0.080c0.072-0.085 0.11-0.152 0.105-0.197zM4.095 13.655l0.015 0.152h-0.040l-0.015-0.152zM3.917 13.94h0.078c0 0.125-0.042 0.193-0.105 0.197h-0.040c0.039-0.054 0.063-0.12 0.067-0.192l0-0.001zM3.785 14.335h0.045v0.037l-0.072 0.12h-0.078v-0.037c0.002 0 0.005 0 0.008 0 0.055 0 0.1-0.045 0.1-0.1 0-0.008-0.001-0.016-0.003-0.023l0 0.001zM3.655 14.693l-0.022 0.19h-0.040l-0.018-0.188h0.080zM2.345 18.405c-0.053 0.25-0.107 0.392-0.165 0.398v-0.038c-0-0.008-0.001-0.016-0.001-0.025 0-0.137 0.066-0.258 0.167-0.334l0.001-0.001zM2.095 18.925v0.038c0.002 0.005 0.002 0.011 0.002 0.018 0 0.037-0.030 0.067-0.067 0.067-0.002 0-0.003-0-0.005-0h0v-0.047q0-0.067 0.070-0.085zM2.038 20h0.12v0.043c-0.045 0.008-0.086 0.025-0.121 0.048l0.001-0.001h-0.077c0-0.040 0.020-0.070 0.070-0.085zM5.485 18.935c-0.459 0.201-0.853 0.429-1.218 0.695l0.018-0.013q-1.105 0.383-1.095 0.48c-0.521 0.194-0.947 0.385-1.359 0.599l0.067-0.032c-0.078-0.001-0.151-0.021-0.215-0.056l0.002 0.001c-0.001-0.007-0.001-0.016-0.001-0.024 0-0.129 0.071-0.241 0.177-0.3l0.002-0.001c0.017-0.002 0.038-0.002 0.058-0.002 0.097 0 0.19 0.020 0.274 0.057l-0.004-0.002c0.18-0.083 0.391-0.155 0.611-0.204l0.021-0.004v-0.080l-0.25 0.020c0.202-0.125 0.434-0.233 0.679-0.313l0.023-0.007h0.12v0.038c-0.208 0.017-0.323 0.080-0.348 0.188 0 0.050 0.033 0.070 0.085 0.065 0.155-0.098 0.232-0.155 0.23-0.172q0.442-0.085 2.452-1.282v0.073c0 0.035-0.112 0.133-0.343 0.3zM3.43 19.61c0.197-0.016 0.371-0.102 0.5-0.232l0-0c0.055 0 0.085 0.017 0.087 0.065-0.208 0.056-0.391 0.142-0.554 0.254l0.006-0.004h-0.040v-0.078zM6.75 17.067l-1.027 0.815c-0.353 0.254-0.758 0.503-1.179 0.723l-0.056 0.027q-1.825 1-2.268 1.043h-0.045q0.055-0.205 1.625-3.328c0.816-0.134 1.548-0.358 2.233-0.668l-0.056 0.023 0.25-0.020c0.074-0.014 0.159-0.022 0.246-0.022 0.333 0 0.639 0.117 0.879 0.311l-0.003-0.002 0.015 0.152c-0.185 0.532-0.39 0.845-0.61 0.938zM4.75 15.938l0.165-0.015v0.037l-0.165 0.015v-0.037zM7.072 15.545h0.12c0.112 0.053 0.17 0.1 0.175 0.143v0.037c-0.001 0-0.003 0-0.005 0-0.124 0-0.233-0.067-0.292-0.166l-0.001-0.002zM7.4 13.675c-0.264 0.243-0.559 0.46-0.877 0.64l-0.024 0.012c-0.157 0.015-0.75 0.25-1.768 0.69-0.034-0.013-0.073-0.021-0.113-0.021-0.016 0-0.031 0.001-0.046 0.003l0.002-0v-0.072c0.006-0.21 0.079-0.403 0.199-0.557l-0.002 0.002c0.080-0.42 0.165-0.66 0.25-0.717l0.85-1.912q-0.015-0.178 0.545-0.273h0.12v0.11c0.365-0.055 0.595-0.088 0.683-0.095 0.675-0.057 1.028 0.080 1.055 0.408h0.078l-0.018-0.193h0.085c0.162 0.061 0.284 0.194 0.329 0.359l0.001 0.004c-0.008 0.155-0.073 0.294-0.173 0.398l0-0c-0.053 0-0.082-0.033-0.085-0.107h-0.085l-0.018 0.232q-0.513 0.768-0.75 0.79c-0.14 0.193-0.225 0.29-0.25 0.29zM7.923 15.015c-0.046-0.037-0.104-0.061-0.167-0.065l-0.001-0v-0.115h0.077l0.17 0.1c0.002 0.005 0.002 0.011 0.002 0.018 0 0.037-0.030 0.068-0.067 0.068-0.002 0-0.003-0-0.005-0h0zM8.463 15.655c0.075 0.030 0.12 0.063 0.127 0.092h-0.060l-0.055 0.045-0.015-0.155zM8.5 15.975v-0.030l0.098-0.023v0.030l-0.098 0.023zM8.735 16.25c0.1-0.017 0.15-0.023 0.335-0.065v0.030l-0.355 0.082c0-0.007 0.001-0.015 0.001-0.024s-0-0.017-0.001-0.025l0 0.001zM9.080 16.398c-0.127 0.003-0.249 0.021-0.366 0.052l0.011-0.002v-0.030l0.297-0.095 0.143-0.032 0.015 0.055c-0.065 0.015-0.018 0.015-0.092 0.052zM9.395 16.323c-0.005 0.001-0.011 0.002-0.017 0.002-0.030 0-0.056-0.021-0.063-0.049l-0-0 0.090-0.020c0.006-0.002 0.013-0.004 0.020-0.004 0.029 0 0.053 0.023 0.055 0.051v0l-0.085 0.020zM10.25 15.393v-0.030l0.148-0.035 0.015 0.055h-0.155zM11.16 20.977c0.003-0.014 0.005-0.030 0.005-0.046s-0.002-0.032-0.005-0.048l0 0.002h0.033c0.006-0.003 0.013-0.004 0.020-0.004 0.027 0 0.049 0.020 0.052 0.046l0 0v0.030l-0.12 0.027zM11.797 15.633h-0.065c-0.073 0.032-0.161 0.062-0.252 0.085l-0.013 0.003-0.060 0.015c-0.006 0.002-0.012 0.003-0.019 0.003-0.028 0-0.052-0.019-0.058-0.045l-0-0 0.42-0.107 0.14-0.065 0.047 0.053c-0.055 0.008-0.105 0.029-0.146 0.061l0.001-0.001zM12.125 15.527v-0.030c0.032-0.010 0.059-0.029 0.080-0.052l0-0 0.295-0.068v0.030c-0.148 0.033-0.275 0.074-0.398 0.126l0.015-0.006zM12.172 14.915c-0.033 0.012-0.061 0.030-0.085 0.053l0-0c0-0.020-0.047-0.020-0.125 0-0.015-0.057 0.21-0.14 0.672-0.25l0.065-0.015 0.015 0.055c-0.325 0.095-0.5 0.15-0.543 0.155zM12.988 14.035c-0.033 0.37-0.162 0.58-0.393 0.633v-0.030l-0.205 0.080-0.090 0.020c-0.019 0.006-0.040 0.009-0.063 0.009s-0.044-0.003-0.064-0.009l0.002 0-0.018-0.082c0.298-0.467 0.591-0.867 0.907-1.248l-0.017 0.021h0.070c0.001 0.017 0.001 0.036 0.001 0.055 0 0.197-0.045 0.383-0.124 0.55l0.003-0.008zM14.43 12.8h-0.030v-0.057h0.12v0.030c-0.034 0.010-0.064 0.022-0.092 0.039l0.002-0.001zM13.835 18.765c-0.050-0.027-0.11-0.043-0.173-0.043-0.005 0-0.010 0-0.015 0l0.001-0v-0.087q0-0.045 0.055-0.063c0.040 0 0.063 0.023 0.068 0.085 0.049-0.073 0.104-0.136 0.167-0.192l0.001-0.001 0.063 0.035c-0.023 0.177-0.078 0.27-0.16 0.277zM20.203 12.105c-0.030 0-0.087-0.090-0.18-0.28v-0.057c0.058 0 0.12 0.085 0.18 0.273v0.065zM20.117 11.44l-0.027 0.060-0.863-0.36c0.575 0.018 0.872 0.12 0.89 0.3zM16.465 14.575h-0.12v-0.057h0.12v0.057zM16.365 12.69h0.032v0.088q-0.045 0-0.113 0.125v-0.057c0.041-0.040 0.069-0.094 0.077-0.154l0-0.001zM16.115 13.295v0.115h-0.032v-0.115zM15.977 13.512h0.060q0 0.148-0.078 0.152h-0.035c0.028-0.043 0.047-0.095 0.050-0.152l0-0.001zM15.88 13.81h0.027v0.030l-0.053 0.092h-0.060v-0.030c0.063 0 0.090-0.037 0.085-0.095zM15.783 14.080l-0.020 0.15h-0.027v-0.148h0.060zM14.783 16.905q-0.060 0.293-0.125 0.3v-0.025c-0-0.004-0-0.008-0-0.013 0-0.106 0.050-0.201 0.127-0.261l0.001-0.001zM14.6 17.3v0.025c0.001 0.005 0.002 0.010 0.002 0.015 0 0.029-0.024 0.052-0.053 0.052-0.002 0-0.003-0-0.005-0l0 0v-0.030q0-0.045 0.055-0.063zM14.547 18.12h0.092v0.030c-0.034 0.007-0.064 0.019-0.091 0.036l0.001-0.001h-0.060q0-0.050 0.055-0.063zM17.163 17.313c-0.35 0.157-0.649 0.329-0.93 0.526l0.017-0.011c-0.56 0.195-0.835 0.317-0.832 0.365-0.392 0.146-0.713 0.29-1.024 0.453l0.049-0.023c-0.059-0.003-0.114-0.019-0.162-0.046l0.002 0.001c-0.001-0.008-0.002-0.018-0.002-0.027 0-0.097 0.055-0.18 0.135-0.222l0.001-0.001c0.015-0.001 0.032-0.002 0.049-0.002 0.072 0 0.141 0.015 0.204 0.041l-0.003-0.001c0.136-0.060 0.297-0.114 0.464-0.152l0.018-0.003v-0.058l-0.188 0.017c0.154-0.097 0.331-0.182 0.517-0.245l0.018-0.005h0.092v0.025c-0.158 0.015-0.25 0.060-0.265 0.145 0 0-0 0.001-0 0.002 0 0.029 0.024 0.052 0.053 0.052 0.004 0 0.009-0.001 0.013-0.002l-0 0c0.117-0.078 0.172-0.12 0.172-0.135q0.335-0.060 1.86-0.975v0.058c0 0.023-0.085 0.098-0.25 0.225zM15.602 17.813c0.154-0.006 0.293-0.067 0.398-0.163l-0.001 0c0.040 0 0.063 0.015 0.065 0.052-0.157 0.041-0.296 0.102-0.421 0.181l0.006-0.004h-0.033v-0.055zM18.122 15.877l-0.775 0.625c-0.27 0.196-0.579 0.387-0.901 0.555l-0.042 0.020q-1.383 0.75-1.723 0.79h-0.033q0.043-0.157 1.238-2.525c0.621-0.106 1.175-0.28 1.695-0.517l-0.043 0.017 0.188-0.018c0.055-0.010 0.119-0.016 0.183-0.016 0.254 0 0.487 0.090 0.668 0.24l-0.002-0.001v0.115c-0.142 0.4-0.295 0.635-0.462 0.707zM16.6 15.033h0.12v0.030h-0.12v-0.030zM18.363 14.732h0.093c0.085 0.043 0.13 0.080 0.133 0.11v0.025c-0.003 0-0.006 0-0.009 0-0.093 0-0.174-0.051-0.217-0.126l-0.001-0.001zM18.613 13.315c-0.195 0.186-0.413 0.352-0.648 0.491l-0.017 0.009c-0.524 0.157-0.969 0.334-1.395 0.543l0.052-0.023c-0.031-0.011-0.067-0.018-0.104-0.018-0.007 0-0.013 0-0.020 0.001l0.001-0v-0.057c0.004-0.16 0.059-0.306 0.149-0.424l-0.001 0.002c0.060-0.322 0.128-0.5 0.198-0.543l0.65-1.453c0-0.085 0.13-0.155 0.41-0.21h0.093v0.088q0.413-0.068 0.517-0.078c0.5-0.045 0.78 0.057 0.802 0.31h0.060v-0.14h0.060c0.129 0.047 0.224 0.158 0.25 0.293l0 0.002c-0.004 0.118-0.050 0.224-0.123 0.305l0-0c-0.040 0-0.063-0.023-0.067-0.085h-0.060l-0.017 0.175c-0.25 0.393-0.448 0.598-0.565 0.605-0.105 0.143-0.17 0.215-0.2 0.217zM18.885 14.285v-0.088h0.060l0.13 0.080c0 0.002 0 0.005 0 0.008 0 0.030-0.025 0.055-0.055 0.055-0 0-0 0-0.001 0h0c-0.035-0.027-0.079-0.045-0.126-0.050l-0.001-0zM8.037 19.94l-0.060 0.015-0.053 0.045c0.003 0.026 0.025 0.047 0.052 0.047 0.007 0 0.014-0.002 0.021-0.004l-0 0c0.040 0 0.055-0.032 0.047-0.070v-0.030zM7.808 19.48v0.030c0.040 0 0.055-0.032 0.048-0.070v-0.030c-0.028 0.003-0.050 0.026-0.050 0.055 0 0.005 0.001 0.011 0.002 0.016l-0-0zM9.457 16.383l0.045-0.027h-0.023c-0.012 0.003-0.021 0.014-0.021 0.027 0 0.002 0 0.004 0.001 0.006l-0-0zM9.457 15.58l0.070-0.018-0.027-0.063-0.070 0.018 0.015 0.060zM25.92 17.933l-0.157-0.017-0.027 0.060v0.025l0.942-0.080v-0.058l-0.75 0.065zM26.782 17.86v0zM30.74 17.343v0.058l0.102 0.017v-0.058l-0.102-0.017zM30.595 17.343c-0.281 0.081-0.605 0.133-0.939 0.142l-0.006 0v0.058h0.1l0.078-0.030c0.7-0.078 0.782-0.050 0.775-0.128v-0.027zM26.345 16.313l-0.063-0.020c-0.033 0.072-0.059 0.156-0.074 0.244l-0.001 0.006v0.025c0.050 0 0.093-0.085 0.135-0.25zM25.492 15.852v-0.030h-0.032l-0.058 0.037 0.032 0.055c0.045 0 0.065-0.025 0.060-0.065zM27.345 17.767v-0.058h-0.017v0.058zM31.188 16.9h0.045c0.025 0 0.038-0.023 0.035-0.060l-0.025-0.055c-0.001 0-0.003 0-0.004 0-0.132 0-0.257 0.034-0.365 0.094l0.004-0.002v-0.030l-0.192 0.017c0-0.058-0.020-0.087-0.047-0.085h-0.1c-0.117 0-0.172 0-0.23 0.050 0-0.020 0-0.030-0.020-0.030h-0.113l-0.065 0.038c0-0.020 0-0.030-0.020-0.030l-0.040 0.035v-0.030h-0.192v0.058l0.080 0.020h0.075c0.020 0.012 0.043 0.019 0.068 0.019 0.006 0 0.012-0 0.017-0.001l-0.001 0 0.065-0.032v0.025c-0.17 0.047-0.378 0.088-0.591 0.115l-0.024 0.002c-0.017-0.014-0.038-0.023-0.062-0.025l-0-0c-0.027-0.001-0.048-0.023-0.048-0.050 0-0.001 0-0.002 0-0.003v0l0.13-0.017c0.023 0.008 0.052 0.016 0.082 0.022l0.005 0.001c0.105-0.052 0.11-0.073 0.165-0.078v-0.058c-0.199 0.038-0.429 0.061-0.664 0.063h-0.021v-0.058c0.578-0.070 0.385-0.030 0.582-0.085 0 0.020 0 0.030 0.020 0.030 0.021-0.021 0.048-0.036 0.079-0.040l0.001-0h0.040c0.028 0.001 0.061 0.002 0.095 0.002 0.195 0 0.383-0.026 0.562-0.076l-0.015 0.003v0.025l0.065-0.032h0.060c0-0.058 0.085-0.067 0.115-0.070v-0.063c-0.703 0.142-0.887 0.102-1.082 0.157v-0.025c-0.058 0.014-0.124 0.022-0.192 0.022-0.020 0-0.040-0.001-0.060-0.002l0.003 0c-0.023 0.007-0.043 0.020-0.057 0.037l-0 0c0-0.020 0-0.030-0.023-0.030v0l-0.598 0.098c0-0.017 0-0.025-0.023-0.023-0.187 0.057-0.405 0.098-0.63 0.114l-0.010 0.001c-0.029 0.005-0.056 0.017-0.078 0.033l0.001-0c0-0.017 0-0.025-0.032-0.023l-0.25 0.020-0.17 0.043c0-0.017 0-0.025-0.032-0.023-0.072 0.022-0.157 0.039-0.244 0.047l-0.006 0c-0.043 0 0.020 0 0-0.025l-0.052 0.030c-0.075 0-0.035 0-0.29 0-0.45 0.055-0.4 0.063-0.45 0.065h-0.168c0 0.002 0.001 0.003 0.001 0.005 0 0.012-0.010 0.023-0.023 0.023-0.001 0-0.002-0-0.003-0h0c-0.19-0.025-0.29-0.055-0.29-0.090q0.038-0.273 0.133-0.28h0.032l-0.027 0.060h0.032c0.060-0.032 0.087-0.063 0.085-0.090v-0.063h-0.060v-0.058c-0.001-0.009-0.002-0.019-0.002-0.029 0-0.032 0.007-0.063 0.020-0.090l-0.001 0.001 0.137-0.223v0.058h0.065v-0.058l-0.038-0.052c0.031-0.032 0.071-0.056 0.116-0.067l0.002-0v-0.030h-0.087v-0.088c0.105-0.185 0.191-0.399 0.246-0.625l0.004-0.017 0.063 0.025c0.040 0 0.058-0.025 0.055-0.068h-0.060v-0.025c-0.001-0.007-0.001-0.015-0.001-0.023 0-0.036 0.009-0.071 0.024-0.101l-0.001 0.001c0.080-0.072 0.13-0.175 0.13-0.291 0-0.005-0-0.010-0-0.015l0 0.001c0.017 0 0.027 0 0.030 0.027 0.082-0.047 0.145-0.17 0.19-0.375 0.213-0.428 0.422-0.946 0.594-1.48l0.023-0.083c0.512-1.38 0.5-1.525 0.563-1.852h-0.060c0.001 0.007 0.001 0.015 0.001 0.023 0 0.035-0.009 0.069-0.024 0.098l0.001-0.001c-0.029-0.013-0.062-0.022-0.097-0.023h-0v-0.025c0.003-0.162 0.060-0.311 0.154-0.429l-0.001 0.001h0.027l0.052 0.2h0.060c0.011-0.095 0.028-0.18 0.050-0.263l-0.003 0.013c0-0.030-0.025-0.050-0.073-0.053l-0.058 0.037c0-0.043 0-0.152 0-0.325h-0.030c-0.039-0.032-0.068-0.076-0.080-0.126l-0-0.002-0.332 0.033c-0.007-0.039-0.020-0.073-0.038-0.104l0.001 0.001c0-0.030 0.073-0.060 0.225-0.090l0.067 0.025 0.063-0.037c0 0.020 0.015 0.030 0.038 0.027l0.063-0.037c0 0.020 0.015 0.030 0.038 0.027h0.030v-0.068c-0.047 0-0.17 0-0.365 0l-0.063 0.043v-0.037q-2.345 0.193-2.663 0.223c-0.027 0-0.137 0-0.33 0 0 0.025-0.020 0.040-0.067 0.045l-0.067-0.030-0.265 0.045c-0.040 0.004-0.087 0.006-0.135 0.006s-0.095-0.002-0.141-0.006l0.006 0c-0.035 0.028-0.079 0.046-0.127 0.050l-0.001 0 0.663-0.050c-0.046 0.031-0.102 0.051-0.162 0.053h-0c-0.009 0.001-0.020 0.002-0.030 0.002-0.037 0-0.072-0.009-0.103-0.025l0.001 0.001c-0.137 0.044-0.305 0.085-0.478 0.114l-0.022 0.003-0.067-0.025-1.090 0.168c-0.033-0.016-0.072-0.025-0.113-0.025-0.012 0-0.024 0.001-0.036 0.002l0.001-0c-0.11 0.015-0.208 0.037-0.303 0.066l0.013-0.003-0.527 0.22 0.040 0.065c0.041-0.007 0.077-0.022 0.109-0.043l-0.001 0.001 0.188 0.018-0.023 0.175c-0.15 0.054-0.262 0.178-0.299 0.332l-0.001 0.003c-0.25 0.115-0.387 0.195-0.387 0.25v0.030h0.040l0.070-0.037 0.082 0.098v0.135q0 0.063-1.302 2.75c-0.75 1.725-1.15 2.667-1.188 2.838-0.25 0.073-0.407 0.177-0.453 0.317 0 0.045 0.082 0.075 0.23 0.085v0.067l-0.067 0.113v0.135q0 0.105 0.565 0.16c0-0.023 0-0.038 0.035-0.040-0.003 0.179-0.028 0.351-0.073 0.514l0.003-0.014h0.085c0.109-0.116 0.187-0.263 0.219-0.427l0.001-0.005h0.030c0.038 0 0.078 0.040 0.122 0.13q-0.070 0.027-0.5 1.113l0.040 0.065h0.040q0.512-1.3 0.645-1.438 0.675-0.060 2.332-0.25l0.070-0.043c-0 0-0 0.001-0 0.002 0 0.018 0.015 0.032 0.032 0.032 0.004 0 0.007-0.001 0.010-0.002l-0 0h0.073l0.070-0.043c-0 0-0 0.001-0 0.002 0 0.018 0.015 0.032 0.032 0.032 0.004 0 0.007-0.001 0.010-0.002l-0 0 0.837-0.073c0.223-0.017 0.325-0.085 0.317-0.2 0-0.030 0.128-0.065 0.392-0.102 0.001 0 0.002-0 0.004-0 0.040 0 0.078 0.007 0.114 0.021l-0.002-0.001c0-0.020 0.13-0.043 0.395-0.065 0-0.14 0.050-0.215 0.13-0.223v-0.067c-0.093 0.011-0.178 0.031-0.258 0.060l0.008-0.003c-0.119-0.002-0.233-0.016-0.343-0.042l0.011 0.002c-0.031 0.020-0.067 0.035-0.106 0.042l-0.002 0-0.598-0.017-0.070 0.038q0-0.032-0.043-0.027h-0.032l-0.075 0.038c0-0.020-0.063-0.038-0.185-0.052l-0.075 0.045h-0.145v-0.038q1.125-0.122 1.11-0.305c0.005-0.001 0.010-0.002 0.015-0.002 0.036 0 0.065 0.029 0.065 0.065 0 0.002-0 0.003-0 0.005v-0l0.22-0.055v-0.067l-1.795 0.050c0 0.023 0 0.038-0.035 0.040l-0.22-0.017c-0.053 0.003-0.101 0.021-0.141 0.051l0.001-0.001-0.087-0.015c-0.183 0.012-0.354 0.041-0.518 0.087l0.018-0.004c-0.075-0.006-0.162-0.010-0.25-0.010s-0.175 0.004-0.261 0.011l0.011-0.001-0.402 0.035-0.188-0.020c0-0.12 0.223-0.703 0.698-1.75 0.075-0.259 0.208-0.481 0.385-0.66l-0 0c0.042 0.001 0.081 0.011 0.117 0.028l-0.002-0.001 0.258-0.098 0.148 0.023c0.319-0.036 0.611-0.111 0.885-0.221l-0.023 0.008c0.017-0.003 0.037-0.004 0.057-0.004 0.047 0 0.091 0.008 0.133 0.022l-0.003-0.001 0.22-0.053 0.652-0.055c0.335-0.032 0.642-0.098 0.936-0.194l-0.031 0.009v-0.068c-0.12 0-0.185 0-0.188-0.057 0-0.090-0.095-0.127-0.265-0.115v-0.068l0.18-0.053 0.47-0.040v-0.068c-0.017 0-0.115 0-0.29 0v-0.072l0.183-0.018c0.050 0 0.070-0.027 0.065-0.075-0.25 0-0.367 0-0.37-0.037q-2.558 0.125-2.565 0.047c-0.041 0.009-0.077 0.026-0.108 0.048l0.001-0.001-0.073-0.078q0.677-1.44 0.795-1.45c-0.005 0.067-0.025 0.128-0.056 0.182l0.001-0.002v0.020h0.073c0.18-0.428 0.33-0.65 0.457-0.66 0.535-0.047-0.075-0.082 1.073-0.25 0.030 0.017 0.065 0.027 0.102 0.027h0q0.675-0.137 1.88-0.285v-0.068l-0.427 0.040v-0.068c0.049-0.004 0.093-0.022 0.128-0.050l-0 0v0.037c0.037-0.009 0.070-0.026 0.098-0.048l-0 0c0.015-0.003 0.033-0.004 0.050-0.004 0.043 0 0.084 0.009 0.122 0.025l-0.002-0.001c0.101-0.030 0.223-0.055 0.348-0.071l0.012-0.001 0.267-0.025c0.065-0.043 0.095-0.080 0.093-0.115v-0.030c-0.019 0.002-0.042 0.002-0.064 0.002-0.060 0-0.119-0.006-0.176-0.018l0.006 0.001c-0-0.002-0-0.005-0-0.008 0-0.035 0.026-0.063 0.060-0.067l0-0 0.5-0.047 0.227-0.057c0 0.025 0.015 0.035 0.032 0.035 0.037-0.009 0.070-0.026 0.098-0.048l-0 0h0.038c-0.036 0.075-0.070 0.166-0.097 0.259l-0.003 0.013h-0.065c-0.004-0.045-0.017-0.085-0.038-0.121l0.001 0.001h-0.045c-0.605 1.688-0.875 2.473-1.435 3.768-0.102 0.33-0.188 0.515-0.262 0.555 0 0-0 0.001-0 0.002 0 0.029 0.023 0.053 0.052 0.053 0.004 0 0.009-0.001 0.013-0.002l-0 0c0.002 0.019 0.002 0.040 0.002 0.062 0 0.155-0.044 0.301-0.119 0.424l0.002-0.004c-0.25 0.75-0.43 1.153-0.52 1.228l0.058 0.352c0 0.002 0 0.005 0 0.008 0 0.030-0.025 0.055-0.055 0.055-0 0-0 0-0.001 0h-0.060c0-0.098-0.045-0.145-0.108-0.137h-0.032c-0.080 0.123-0.142 0.267-0.178 0.421l-0.002 0.009h0.060c0.067-0.034 0.113-0.102 0.113-0.181 0-0.002-0-0.004-0-0.006v0h0.12l0.070 0.025c-0.045 0.058-0.074 0.132-0.077 0.212l-0 0.001 0.032 0.055-0.080 0.188v0.030c0.005-0 0.010-0 0.015-0 0.079 0 0.153 0.024 0.213 0.066l-0.001-0.001c0.069-0.012 0.13-0.041 0.181-0.081l-0.001 0.001c0.070 0 0.33 0 0.78 0l0.225-0.078c0.034 0.001 0.075 0.001 0.115 0.001 0.156 0 0.31-0.007 0.462-0.020l-0.020 0.001h0.098l0.052-0.035v0.030c0.052-0.006 0.112-0.010 0.173-0.010 0.102 0 0.201 0.010 0.297 0.029l-0.010-0.002v0.030h-0.137v0.058c0.042-0.003 0.080-0.018 0.11-0.043l-0 0c0.035 0 0.055 0.017 0.058 0.058-0.070 0.008-0.133 0.022-0.193 0.044l0.006-0.002-0.060-0.020c-0.095 0.025-0.075 0.032-0.14 0.038l-0.095-0.017c0 0.002 0.001 0.003 0.001 0.005 0 0.012-0.010 0.023-0.023 0.023-0 0-0 0-0.001 0h0c-0 0.001-0 0.002-0 0.003 0 0.028 0.022 0.050 0.050 0.050 0.003 0 0.005-0 0.008-0.001l-0 0h0.098l0.5-0.045 0.192-0.043c0 0.017 0 0.025 0.025 0.023l0.093-0.035 0.175-0.015c0.135 0 0.133-0.020 0.427-0.067 0-0.017 0-0.025 0.017-0.027v0.025c0.224-0.027 0.422-0.067 0.615-0.119l-0.030 0.007v0.015c0.12-0.027 0.052-0.020 0.085-0.045 0 0.020 0 0.030 0.020 0.030h0.085v-0.063h-0.21c-0.050 0.010-0.107 0.015-0.165 0.015-0.009 0-0.017-0-0.026-0l0.001 0-0.427 0.023v-0.030l0.25-0.032h0.085l0.050-0.035v0.027c0.335-0.027 0.455 0.055 2-0.275 0.085 0 0.078-0.078 0.13-0.223-0.004 0-0.008 0.001-0.012 0.001-0.026 0-0.050-0.007-0.071-0.018l0.001 0c-0.129 0.033-0.281 0.056-0.436 0.065l-0.006 0c-0.020 0-0.038-0.017-0.045-0.052v-0.025h0.25c0.094-0.010 0.178-0.041 0.253-0.086l-0.003 0.001c0 0.020-0.050 0.032-0.020 0.030zM19.718 17.085h-0.11c0.041-0.189 0.101-0.356 0.18-0.512l-0.005 0.012h0.073c-0.025 0.186-0.073 0.355-0.142 0.512l0.005-0.012zM19.85 16.555v-0.030c0-0.038 0.020-0.063 0.073-0.075v0.050c0 0.045-0.020 0.070-0.073 0.075zM21.305 17.68v0.030l-0.183 0.017v-0.030l0.183-0.017zM21.085 17.663c0 0.038-0.052 0.080-0.175 0.12l-0.223-0.017h-0.073v-0.067l0.477-0.045zM22.558 10.885h-0.11v-0.037c0-0.037 0.017-0.063 0.065-0.075h0.040l0.075 0.030c0 0.003 0.001 0.007 0.001 0.010 0 0.036-0.029 0.065-0.065 0.065-0.001 0-0.002-0-0.003-0h0zM24.223 10.56h0.027v0.068h-0.1c-0-0.002-0-0.005-0-0.008 0-0.035 0.026-0.063 0.060-0.067l0-0zM23.802 10.707l-0.165-0.018v-0.030c0.154-0.011 0.298-0.039 0.435-0.084l-0.013 0.004c0 0.025 0.025 0.035 0.067 0.030v0.068h-0.065c-0.009 0.001-0.020 0.002-0.030 0.002-0.037 0-0.072-0.009-0.103-0.025l0.001 0.001c-0.036 0.025-0.079 0.042-0.126 0.047l-0.001 0zM24 11.322v-0.030l0.267-0.025v0.030l-0.267 0.025zM24.288 11.090v-0.040h0.13v0.037h-0.13zM24.317 10.633h-0.035l0.030-0.072 0.297-0.027v0.037c-0.111 0.013-0.211 0.034-0.308 0.063l0.013-0.003zM24.47 11.275v-0.068h0.13q0.067 0 0.070 0.063l-0.195 0.018zM25.26 10.2l-0.168 0.047h-0.030c-0.051 0.005-0.11 0.008-0.17 0.008-0.050 0-0.1-0.002-0.149-0.006l0.006 0c0.218-0.015 0.425-0.030 0.5-0.043zM25.080 10.95v0.030l-0.23 0.020v-0.030l0.23-0.020zM25.457 11.13c0-0.027-0.047-0.047-0.137-0.055l-0.23 0.065h-0.177c-0.040-0.027-0.060-0.047-0.063-0.060h0.205l0.46-0.075h0.235v0.037c-0.109 0.010-0.209 0.031-0.304 0.063l0.009-0.003zM27.83 10.5h0.052c0.078-0.077 0.17-0.141 0.272-0.185l0.006-0.002c-0.055 0.318-0.194 0.596-0.394 0.819l0.001-0.002-0.13-0.080c0.067-0.151 0.133-0.335 0.185-0.525l0.007-0.030zM27.43 11.188h0.032c-0.045 0.085-0.085 0.127-0.117 0.13v-0.088c0.035-0.006 0.065-0.020 0.090-0.040l-0 0zM27.18 11.805c0.022-0.165 0.086-0.311 0.181-0.432l-0.001 0.002v0.030c-0.032 0.232-0.085 0.357-0.152 0.365v0.148c-0.044 0.050-0.073 0.115-0.080 0.186l-0 0.001h-0.032l-0.017-0.203c0.038 0 0.067-0.037 0.087-0.098zM27.080 12.14c-0.011 0.093-0.034 0.177-0.070 0.255l0.002-0.005h-0.032v-0.088c0.045-0.102 0.082-0.155 0.108-0.155zM25.2 17.595v-0.025h0.060v0.087c-0.032 0-0.055-0.017-0.065-0.058zM27.885 17.665c0-0.020 0-0.030-0.032-0.027l-0.152 0.015v-0.030h0.015l0.358-0.030v0.030c-0.007-0.001-0.015-0.001-0.024-0.001-0.061 0-0.117 0.017-0.165 0.047l0.001-0.001zM27.705 17.59c0.015 0 0 0.015 0 0.017s-0.017 0 0-0.017zM27.723 17.17l-0.2 0.017v-0.030l0.183-0.017 0.157-0.040c0 0.017 0 0.025 0.032 0.023 0.188-0.032 0.17-0.043 0.25-0.050 0.030 0 0.050 0.017 0.052 0.052l-0.483 0.043zM28.422 17.11c-0.048-0.010-0.102-0.016-0.159-0.016-0.014 0-0.027 0-0.041 0.001l0.002-0v-0.025l0.18-0.017v0.025c-0.017 0 0.050 0 0.017 0.030zM28.438 17.078v-0.025h0.098v0.025h-0.098zM28.655 17.060v-0.025c0.027-0.007 0.051-0.020 0.070-0.038l-0 0c0.003-0 0.007-0.001 0.010-0.001 0.037 0 0.068 0.029 0.070 0.066v0zM28.933 17.025v-0.025h0.12v0.030h-0.12zM29.098 17.010c0-0.035 0-0.055 0.043-0.060l0.040 0.052c-0-0.002-0.001-0.003-0.001-0.005 0-0.011 0.008-0.020 0.018-0.022l0-0 0.030 0.055-0.13-0.017zM31.383 16.75v0 0zM31.425 16.72c0.017 0 0.027-0.023-0.017-0.030s0.023 0.030-0.023 0.032v0.027l0.025-0.017-0.025 0.020-0.050 0.063 0.098-0.035v-0.058zM31.595 16.852h-0.017v0.058h0.137c0-0.038-0.093-0.050-0.122-0.050z"></path>
</svg>
<svg id="icon-css3-plain-wordmark" width="32" height="32" viewBox="0 0 32 32" x="32" y="0">
<path fill="#1572b6" d="M4.918 6.5l2.017 22.623 9.052 2.512 9.077-2.516 2.020-22.62h-22.165zM22.22 19.122l-0.587 5.473 0.002 0.469-5.639 1.578-5.68-1.556-0.384-4.335h2.785l0.197 2.192 3.087 0.824-0.001 0.004v-0.008l3.098-0.874 0.327-3.637h-6.477l-0.056-0.589-0.127-1.412-0.066-0.75h6.972l0.253-2.75h-10.618l-0.056-0.647-0.127-1.508-0.066-0.845h13.899l-0.067 0.834-0.671 7.538z"></path>
<path fill="#1572b6" d="M22.25 3.594l-1.787-2.094h1.787v-1.25h-4v1.091l2.098 1.909h-2.098v1.25h4zM17.5 3.594l-1.702-2.094h1.702v-1.25h-3.75v1.091l1.933 1.909h-1.933v1.25h3.75zM13 3.25h-2v-1.75h2v-1.25h-3.5v4.25h3.5z"></path>
</svg>
<svg id="icon-express-original" width="32" height="32" viewBox="0 0 32 32" x="64" y="0">
<path d="M31.668 24.61c-1.14 0.29-1.845 0.012-2.477-0.938-1.42-2.128-2.988-4.157-4.5-6.225-0.195-0.267-0.398-0.53-0.65-0.863-1.79 2.415-3.578 4.715-5.255 7.107-0.6 0.855-1.23 1.227-2.35 0.925l6.73-9.033-6.265-8.158c1.078-0.21 1.823-0.103 2.482 0.863 1.457 2.13 3.065 4.157 4.668 6.303 1.613-2.138 3.2-4.168 4.7-6.277 0.602-0.855 1.25-1.18 2.332-0.865-0.82 1.088-1.622 2.158-2.43 3.22-1.090 1.432-2.16 2.883-3.29 4.285-0.402 0.5-0.337 0.825 0.023 1.298 2.090 2.747 4.155 5.523 6.282 8.358z"></path>
<path d="M0.333 15.435c0.18-0.902 0.3-1.822 0.55-2.707 1.5-5.357 7.65-7.585 11.875-4.265 2.475 1.947 3.090 4.692 2.967 7.787h-13.95c-0.21 5.553 3.787 8.905 8.883 7.195 1.787-0.6 2.84-2 3.367-3.75 0.268-0.878 0.71-1.015 1.535-0.765-0.422 2.19-1.38 4.020-3.38 5.165-3 1.715-7.282 1.16-9.535-1.223-1.33-1.4-1.895-3.143-2.145-5.025-0.037-0.3-0.115-0.595-0.175-0.892q0.008-0.76 0.008-1.52zM1.8 15.063h12.607c-0.082-4.015-2.582-6.867-6-6.893-3.75-0.030-6.445 2.755-6.607 6.893z"></path>
</svg>
<svg id="icon-git-plain" width="32" height="32" viewBox="0 0 32 32" x="96" y="0">
<path fill="#f34f29" d="M31.186 14.595l-13.779-13.778c-0.793-0.793-2.080-0.793-2.874 0l-2.861 2.861 3.63 3.629c0.844-0.285 1.811-0.094 2.483 0.579 0.676 0.677 0.866 1.652 0.573 2.498l3.498 3.498c0.846-0.292 1.823-0.103 2.498 0.574 0.945 0.944 0.945 2.475 0 3.42s-2.475 0.945-3.421 0c-0.71-0.711-0.886-1.755-0.526-2.63l-3.262-3.262-0 8.585c0.23 0.114 0.448 0.266 0.64 0.457 0.945 0.944 0.945 2.474 0 3.421-0.945 0.944-2.476 0.944-3.42 0-0.944-0.946-1.022-2.476-0.078-3.421 0.233-0.233 0.464-0.41 0.714-0.527v-8.665c-0.25-0.118-0.48-0.293-0.714-0.528-0.715-0.715-0.849-1.765-0.482-2.644l-3.558-3.578-9.438 9.447c-0.794 0.794-0.789 2.081 0.005 2.875l13.781 13.778c0.793 0.794 2.081 0.794 2.876 0l13.715-13.715c0.794-0.794 0.794-2.082 0.001-2.875z"></path>
</svg>
<svg id="icon-github-original" width="32" height="32" viewBox="0 0 32 32" x="128" y="0">
<path d="M16 1.276c-8.337 0-15.097 6.759-15.097 15.097 0 6.671 4.326 12.329 10.324 14.326 0.754 0.14 1.031-0.328 1.031-0.726 0-0.36-0.014-1.549-0.021-2.811-4.2 0.913-5.086-1.781-5.086-1.781-0.687-1.745-1.676-2.209-1.676-2.209-1.37-0.937 0.103-0.918 0.103-0.918 1.516 0.106 2.314 1.556 2.314 1.556 1.347 2.308 3.532 1.64 4.393 1.255 0.136-0.976 0.527-1.642 0.959-2.019-3.353-0.381-6.878-1.676-6.878-7.461 0-1.648 0.59-2.995 1.556-4.053-0.157-0.38-0.674-1.915 0.146-3.995 0 0 1.268-0.406 4.152 1.548 1.204-0.335 2.496-0.503 3.779-0.509 1.282 0.006 2.575 0.174 3.782 0.508 2.881-1.953 4.148-1.548 4.148-1.548 0.822 2.079 0.305 3.615 0.148 3.995 0.968 1.057 1.554 2.404 1.554 4.053 0 5.799-3.532 7.075-6.893 7.449 0.542 0.468 1.024 1.387 1.024 2.796 0 2.020-0.017 3.646-0.017 4.143 0 0.402 0.272 0.872 1.037 0.724 5.995-1.998 10.316-7.655 10.316-14.323-0-8.338-6.76-15.097-15.097-15.097z"></path>
<path d="M6.621 22.951c-0.033 0.075-0.151 0.098-0.259 0.046-0.11-0.049-0.171-0.151-0.136-0.227 0.032-0.078 0.151-0.099 0.26-0.047 0.11 0.049 0.173 0.152 0.134 0.227zM7.232 23.634c-0.072 0.067-0.213 0.036-0.308-0.070-0.099-0.105-0.117-0.246-0.044-0.314 0.074-0.067 0.211-0.035 0.31 0.070 0.098 0.107 0.118 0.246 0.043 0.314zM7.828 24.503c-0.093 0.064-0.244 0.004-0.338-0.13-0.093-0.134-0.093-0.296 0.003-0.36 0.093-0.064 0.242-0.006 0.338 0.127 0.092 0.136 0.092 0.297-0.003 0.363zM8.643 25.343c-0.082 0.091-0.259 0.067-0.388-0.058-0.132-0.122-0.168-0.295-0.086-0.386 0.084-0.091 0.261-0.066 0.391 0.058 0.132 0.122 0.171 0.295 0.083 0.386zM9.768 25.831c-0.037 0.118-0.206 0.172-0.377 0.122-0.171-0.052-0.283-0.19-0.248-0.309s0.206-0.175 0.378-0.121c0.171 0.052 0.283 0.189 0.247 0.309zM11.004 25.921c0.004 0.125-0.141 0.227-0.32 0.23-0.181 0.004-0.327-0.097-0.329-0.219 0-0.126 0.142-0.227 0.322-0.231 0.179-0.003 0.326 0.097 0.326 0.22zM12.153 25.726c0.021 0.121-0.103 0.246-0.281 0.279-0.175 0.032-0.338-0.043-0.36-0.163-0.021-0.125 0.105-0.249 0.28-0.282 0.178-0.031 0.338 0.043 0.361 0.166z"></path>
</svg>
<svg id="icon-heroku-plain" width="32" height="32" viewBox="0 0 32 32" x="0" y="32">
<path fill="#6762a6" d="M25.525 0.5h-19.050c-1.65 0-2.975 1.325-2.975 2.975v25.075c0 1.65 1.325 2.975 2.975 2.975h19.075c1.65 0 2.975-1.325 2.975-2.975v-25.075c-0.025-1.65-1.35-2.975-3-2.975zM9.25 27.175v-7.050l3.525 3.525-3.525 3.525zM22.5 27.25h-3.275l0.025-0.050v-12.35s0.775-2.95-9.925 1.2c-0.025 0.050-0.050-11.425-0.050-11.425l3.475-0.025v7.35s9.75-3.85 9.75 2.925v12.375zM21.2 9h-3.7c1.325-1.5 2.55-4.25 2.55-4.25h3.825s-0.65 1.75-2.675 4.25z"></path>
</svg>
<svg id="icon-html5-plain-wordmark" width="32" height="32" viewBox="0 0 32 32" x="32" y="32">
<path fill="#e44d26" d="M4.892 6.75l2.022 22.48 9.072 2.421 9.098-2.375 2.024-22.526h-22.215zM22.902 11.868l-0.127 1.458-0.056 0.674h-10.642l0.254 3h10.135l-0.068 0.558-0.654 7.227-0.048 0.422-5.704 1.535-5.694-1.479-0.386-4.264h2.792l0.198 2.115 3.096 0.785 0.002-0.058v0.003l3.103-0.662 0.324-3.432h-9.639l-0.684-7.709-0.067-0.791h13.931l-0.067 0.618zM6.989 0.407h1.406v1.389h1.286v-1.389h1.406v4.205h-1.406v-1.408h-1.286v1.408h-1.406v-4.205zM12.934 1.802h-1.238v-1.395h3.881v1.395h-1.238v2.811h-1.406v-2.811zM16.194 0.407h1.465l0.902 1.478 0.901-1.478h1.466v4.205h-1.4v-2.084l-0.967 1.495h-0.024l-0.968-1.495v2.084h-1.375v-4.205zM21.628 0.407h1.406v2.816h1.977v1.39h-3.383v-4.206z"></path>
</svg>
<svg id="icon-illustrator-plain" width="32" height="32" viewBox="0 0 32 32" x="64" y="32">
<path fill="#faa625" d="M11.989 17.25h3.843c-0.662-2.25-1.313-4.33-1.954-6.444-0.622 2.122-1.253 4.194-1.889 6.444zM31.028 0.25h-30.31c-0.546 0-0.468 0.119-0.468 0.646v30.349c0 0.527-0.078 0.505 0.43 0.505h30.387c0.508 0 0.683 0.021 0.683-0.506v-30.31c0-0.566-0.175-0.685-0.722-0.685zM19.325 24c-0.409 0-0.82-0.033-1.227-0.004-0.294 0.022-0.392-0.102-0.47-0.357-0.378-1.233-0.781-2.465-1.16-3.697-0.076-0.248-0.185-0.338-0.454-0.335-1.381 0.016-2.762 0.015-4.143-0.002-0.291-0.003-0.425 0.074-0.508 0.363-0.351 1.226-0.736 2.442-1.091 3.667-0.077 0.265-0.194 0.358-0.476 0.351-0.829-0.021-1.66-0.008-2.569-0.008 0.24-0.761 0.457-1.465 0.682-2.166 1.379-4.3 2.762-8.6 4.13-12.903 0.095-0.3 0.228-0.392 0.536-0.385 0.972 0.021 1.944 0.005 2.916 0 0.182-0.001 0.306 0.009 0.372 0.216 1.626 5.029 3.258 10.089 4.889 15.117 0.007 0.023 0.003 0.143 0.006 0.143h-1.434zM24.5 24h-3v-11.25h3v11.25zM22.913 11.232c-0.916-0.001-1.572-0.632-1.578-1.518-0.006-0.883 0.677-1.54 1.602-1.541 0.932-0.001 1.589 0.634 1.596 1.543 0.006 0.886-0.667 1.517-1.619 1.515z"></path>
</svg>
<svg id="icon-jasmine-plain" width="32" height="32" viewBox="0 0 32 32" x="96" y="32">
<path fill="#8a4182" d="M17.122 13.175h-2.36l-0.637-0.82v-6.43h3.595v6.43l-0.598 0.82z"></path>
<path fill="#8a4182" d="M13.93 13.775l-0.73 2.245-0.975 0.352-6.117-1.988 1.112-3.418 6.115 1.985 0.595 0.822z"></path>
<path fill="#8a4182" d="M13.51 16.935l1.91 1.387 0.033 1.035-3.777 5.205-2.91-2.113 3.783-5.205 0.963-0.31z"></path>
<path fill="#8a4182" d="M16.44 18.332l1.913-1.387 0.995 0.29 3.78 5.203-2.907 2.113-3.78-5.203v-1.015z"></path>
<path fill="#8a4182" d="M18.71 16.058l-0.73-2.248 0.582-0.857 6.115-1.985 1.113 3.418-6.117 1.988-0.962-0.315z"></path>
<path fill="#8a4182" d="M16 0.352c-8.642 0-15.648 7.006-15.648 15.648s7.006 15.648 15.648 15.648c8.642 0 15.648-7.006 15.648-15.648v0c0-8.642-7.006-15.648-15.648-15.648v0zM15.915 28.227c-6.835 0-12.375-5.54-12.375-12.375s5.54-12.375 12.375-12.375c6.835 0 12.375 5.54 12.375 12.375v0c0 0.001 0 0.002 0 0.002 0 6.835-5.54 12.375-12.375 12.375v0z"></path>
<path fill="#8a4182" d="M15.395 20.747h0.98v4.878h-0.98v-4.878z"></path>
<path fill="#8a4182" d="M20.709 17.737l0.303-0.932 4.639 1.507-0.303 0.932-4.639-1.507z"></path>
<path fill="#8a4182" d="M19.439 11.765l-0.793-0.576 2.867-3.946 0.793 0.576-2.867 3.946z"></path>
<path fill="#8a4182" d="M13.338 11.19l-0.793 0.576-2.867-3.946 0.793-0.576 2.867 3.946z"></path>
<path fill="#8a4182" d="M10.849 16.806l0.303 0.932-4.639 1.507-0.303-0.932 4.639-1.507z"></path>
</svg>
<svg id="icon-javascript-plain" width="32" height="32" viewBox="0 0 32 32" x="128" y="32">
<path fill="#f0db4f" d="M0.5 0.25v31.25h31.25v-31.25h-31.25zM17.030 26.878c-0.461 0.937-1.342 1.553-2.362 1.85-1.568 0.36-3.067 0.155-4.183-0.515-0.746-0.458-1.329-1.163-1.725-1.975l2.38-1.457c0.021 0.009 0.083 0.122 0.167 0.268 0.303 0.509 0.565 0.869 1.080 1.121 0.505 0.172 1.615 0.283 2.044-0.607 0.262-0.453 0.178-1.907 0.178-3.516-0-2.529 0.011-5.047 0.011-7.547h2.927c0 2.75 0.015 5.355 0 8.038 0.006 1.645 0.149 3.111-0.517 4.34zM29.173 26.051c-1.018 3.48-6.691 3.593-8.957 1.294-0.479-0.541-0.779-0.824-1.065-1.449 1.205-0.693 1.205-0.693 2.377-1.371 0.637 0.979 1.226 1.517 2.285 1.737 1.437 0.175 2.883-0.318 2.558-1.845-0.333-1.247-2.942-1.55-4.718-2.883-1.803-1.211-2.225-4.153-0.744-5.834 0.494-0.622 1.336-1.086 2.219-1.309l0.922-0.119c1.77-0.036 2.877 0.432 3.689 1.339 0.226 0.229 0.41 0.476 0.756 1.011-0.943 0.601-0.94 0.595-2.291 1.47-0.288-0.622-0.767-1.012-1.273-1.181-0.785-0.238-1.776 0.021-1.982 0.851-0.071 0.256-0.056 0.494 0.057 0.916 0.318 0.726 1.386 1.041 2.344 1.482 2.758 1.119 3.689 2.318 3.918 3.745 0.221 1.229-0.053 2.026-0.095 2.145z"></path>
</svg>
<svg id="icon-mysql-plain" width="32" height="32" viewBox="0 0 32 32" x="0" y="64">
<path fill="#00618a" d="M31.369 30.696l-0.654-0.634c-0.62-0.823-1.417-1.546-2.254-2.146-0.667-0.479-2.165-1.126-2.444-1.902l-0.051-0.049c0.473-0.053 1.026-0.224 1.462-0.342 0.733-0.197 1.339-0.146 2.096-0.341 0.341-0.098 0.725-0.195 0.975-0.293v-0.195c-0.25-0.393-0.607-0.913-1.024-1.268-1.092-0.93-2.26-1.859-3.488-2.634-0.681-0.43-1.51-0.709-2.232-1.073-0.243-0.123-0.663-0.186-0.823-0.39-0.379-0.483-0.582-1.096-0.875-1.658-0.612-1.179-1.212-2.467-1.755-3.708-0.37-0.846-0.611-1.68-1.072-2.439-2.215-3.642-4.599-5.84-8.292-8-0.786-0.46-1.732-0.641-2.732-0.878-0.536-0.032-1.073-0.065-1.609-0.098-0.328-0.136-0.668-0.537-0.976-0.732-1.224-0.773-4.362-2.454-5.269-0.244-0.572 1.395 0.855 2.756 1.365 3.464 0.359 0.495 0.817 1.052 1.073 1.609 0.169 0.367 0.197 0.734 0.342 1.122 0.354 0.956 0.663 1.995 1.122 2.878 0.232 0.447 0.487 0.918 0.78 1.317 0.179 0.245 0.487 0.353 0.536 0.732-0.301 0.421-0.318 1.076-0.487 1.61-0.763 2.404-0.474 5.392 0.634 7.171 0.34 0.546 1.141 1.718 2.244 1.268 0.964-0.392 0.806-1.61 1.082-2.683 0.062-0.243-0.046-0.422 0.204-0.585v0.049c0.25 0.585 0.527 1.171 0.82 1.756 0.65 1.047 1.722 2.14 2.7 2.878 0.507 0.383 0.98 1.044 1.48 1.268v-0.025h0.055c-0.127-0.25-0.325-0.292-0.488-0.451-0.382-0.374-0.806-0.846-1.122-1.274-0.889-1.207-1.675-2.53-2.39-3.905-0.342-0.657-0.639-1.382-0.927-2.050-0.111-0.258-0.11-0.648-0.341-0.781-0.316 0.489-0.78 0.885-1.025 1.463-0.39 0.924-0.441 2.051-0.585 3.219-0.086 0.030-0.048 0.009-0.098 0.049-0.679-0.164-0.918-0.863-1.171-1.463-0.639-1.517-0.757-3.961-0.195-5.707 0.146-0.452 0.803-1.875 0.537-2.293-0.127-0.416-0.546-0.658-0.78-0.976-0.29-0.393-0.58-0.912-0.781-1.366-0.523-1.183-0.766-2.511-1.317-3.707-0.263-0.572-0.708-1.151-1.073-1.659-0.404-0.563-0.857-0.978-1.171-1.659-0.111-0.242-0.263-0.629-0.097-0.878 0.052-0.168 0.127-0.238 0.293-0.292 0.283-0.218 1.071 0.073 1.366 0.195 0.782 0.325 1.435 0.625 2.098 1.064 0.318 0.211 0.64 0.473 1.024 0.723h0.439c0.687 0 1.456 0.058 2.098 0.253 1.134 0.345 2.15 0.885 3.073 1.468 2.812 1.776 5.11 4.305 6.683 7.319 0.253 0.486 0.363 0.95 0.585 1.464 0.45 1.038 1.016 2.107 1.463 3.122 0.447 1.013 0.881 2.035 1.512 2.878 0.332 0.443 1.613 0.681 2.195 0.927 0.408 0.172 1.077 0.352 1.463 0.585 0.738 0.445 1.453 0.976 2.146 1.464 0.346 0.244 1.41 0.779 1.463 1.22-1.716-0.047-3.026 0.113-4.146 0.585-0.318 0.134-0.826 0.138-0.878 0.537 0.175 0.183 0.202 0.457 0.341 0.683 0.267 0.433 0.719 1.013 1.122 1.317 0.441 0.332 0.894 0.688 1.366 0.976 0.84 0.512 1.777 0.804 2.585 1.317 0.477 0.302 0.989 0.683 1.454 1.024 0.23 0.169 0.223 0.431 0.723 0.537v-0.049c-0.25-0.199-0.236-0.473-0.381-0.682zM7.378 5.866c-0.358-0.007-0.628 0.039-0.878 0.097v0.037h0.050c0.171 0.25 0.472 0.582 0.683 0.885l0.488 1.027 0.048-0.047c0.302-0.213 0.441-0.553 0.439-1.073-0.121-0.127-0.139-0.287-0.244-0.439-0.139-0.202-0.41-0.317-0.585-0.487z"></path>
</svg>
<svg id="icon-nodejs-plain" width="32" height="32" viewBox="0 0 32 32" x="32" y="64">
<path fill="#83cd29" d="M28.169 7.583l-11.036-6.401c-0.695-0.396-1.606-0.396-2.307 0l-11.122 6.401c-0.717 0.413-1.205 1.189-1.205 2.018v12.786c0 0.83 0.498 1.606 1.216 2.021l2.932 1.672c1.407 0.693 1.796 0.693 2.437 0.693 2.083 0 3.165-1.26 3.165-3.457v-12.623c0-0.178 0.111-0.444-0.064-0.444h-1.405c-0.178 0-0.53 0.265-0.53 0.443v12.622c0 0.974-0.904 1.943-2.55 1.12l-3.030-1.753c-0.106-0.058-0.169-0.173-0.169-0.295v-12.786c0-0.12 0.116-0.242 0.223-0.303l11.095-6.39c0.104-0.059 0.251-0.059 0.354 0l10.991 6.389c0.105 0.063 0.088 0.181 0.088 0.305v12.786c0 0.122 0.023 0.241-0.081 0.299l-11.033 6.394c-0.095 0.057-0.217 0.057-0.321 0l-2.829-1.687c-0.085-0.049-0.188-0.067-0.27-0.021-0.786 0.446-0.932 0.505-1.67 0.761-0.182 0.063-0.45 0.173 0.102 0.482l3.7 2.189c0.354 0.205 0.757 0.311 1.162 0.311 0.41 0 0.812-0.107 1.166-0.311l10.994-6.395c0.718-0.418 1.081-1.191 1.081-2.021v-12.786c-0-0.83-0.363-1.604-1.081-2.018zM19.432 20.361c-2.932 0-3.577-0.809-3.793-2.267-0.025-0.157-0.159-0.345-0.319-0.345h-1.433c-0.177 0-0.32 0.215-0.32 0.392 0 1.866 1.015 4.128 5.864 4.128 3.509 0 5.522-1.364 5.522-3.777 0-2.393-1.617-3.021-5.020-3.471-3.441-0.455-3.79-0.684-3.79-1.491 0-0.665 0.296-1.551 2.843-1.551 2.276 0 3.115 0.489 3.46 2.023 0.030 0.144 0.162 0.248 0.31 0.248h1.439c0.088 0 0.173-0.036 0.235-0.099 0.060-0.068 0.092-0.153 0.084-0.245-0.223-2.642-1.978-3.873-5.528-3.873-3.158 0-5.041 1.333-5.041 3.569 0 2.424 1.874 3.095 4.905 3.394 3.626 0.355 3.908 0.886 3.908 1.599 0 1.239-0.994 1.767-3.327 1.767z"></path>
</svg>
<svg id="icon-npm-original-wordmark" width="32" height="32" viewBox="0 0 32 32" x="64" y="64">
<path fill="#cb3837" d="M0.5 9.625h31v10.928h-15.5v1.823h-6.89v-1.823h-8.61zM2.223 18.733h3.445v-5.465h1.723v5.465h1.723v-7.285h-6.89zM10.832 11.447v9.105h3.445v-1.82h3.445v-7.285zM14.277 13.27h1.723v3.64h-1.723zM19.445 11.447v7.285h3.445v-5.465h1.723v5.465h1.723v-5.465h1.723v5.465h1.723v-7.285z"></path>
</svg>
<svg id="icon-photoshop-plain" width="32" height="32" viewBox="0 0 32 32" x="96" y="64">
<path fill="#80b5e2" d="M12.562 10.404c-0.921-0.231-1.842-0.157-2.815-0.005 0 1.701-0.004 3.357 0.009 5.013 0.001 0.085 0.128 0.232 0.21 0.243 1.061 0.143 2.116 0.155 3.108-0.329 1.026-0.5 1.549-1.546 1.413-2.773-0.123-1.118-0.785-1.862-1.926-2.149zM31.75 15.991v-15.169c0-0.524 0.006-0.571-0.503-0.571h-30.377c-0.495 0-0.62 0.047-0.62 0.546v30.377c0 0.505 0.063 0.505 0.552 0.505 10.139 0 20.308-0.002 30.447 0.009 0.393 0 0.499-0.104 0.498-0.49-0.014-5.069 0.003-10.139 0.003-15.208zM14.088 17.451c-1.389 0.495-2.838 0.523-4.338 0.407v5.642h-2.75v-0.351c0-4.724-0.022-9.447-0.035-14.171-0.002-0.392 0.061-0.582 0.503-0.627 2.083-0.213 4.154-0.452 6.225 0.033 2.226 0.522 3.51 1.994 3.608 4.027 0.121 2.518-0.986 4.244-3.213 5.038zM25.166 20.639c-0.106 1.443-0.919 2.39-2.254 2.848-1.785 0.613-3.561 0.471-5.306-0.223-0.286-0.114-0.341-0.258-0.247-0.549 0.172-0.532 0.297-1.078 0.43-1.572 0.738 0.216 1.439 0.487 2.166 0.614 0.513 0.090 1.068 0.037 1.59-0.044 0.468-0.073 0.804-0.391 0.881-0.893 0.078-0.51-0.076-0.952-0.526-1.224-0.358-0.215-0.753-0.37-1.131-0.55-0.608-0.291-1.256-0.519-1.817-0.883-2.208-1.432-1.489-4.096-0.016-5.099 0.788-0.537 1.66-0.774 2.594-0.807 1.098-0.039 2.156 0.151 3.195 0.656l-0.549 1.947c-0.435-0.154-0.84-0.354-1.268-0.434-0.507-0.095-1.039-0.147-1.551-0.105-0.686 0.056-1.088 0.53-1.088 1.117 0 0.348 0.132 0.642 0.422 0.811 0.416 0.242 0.858 0.442 1.297 0.645 0.474 0.219 0.974 0.388 1.431 0.638 1.218 0.668 1.851 1.7 1.748 3.106z"></path>
</svg>
<svg id="icon-php-plain" width="32" height="32" viewBox="0 0 32 32" x="128" y="64">
<path fill="#6181b6" d="M16 8.26c-8.435 0-15.274 3.466-15.274 7.74s6.838 7.74 15.274 7.74 15.273-3.465 15.273-7.74-6.838-7.74-15.274-7.74zM12.026 17.508c-0.364 0.341-0.769 0.482-1.215 0.627s-1.013 0.115-1.703 0.115h-1.563l-0.433 2.5h-1.825l1.629-8.5h3.51c1.056 0 1.826 0.304 2.311 0.858s0.63 1.341 0.437 2.334c-0.080 0.409-0.214 0.79-0.403 1.129s-0.438 0.656-0.743 0.937zM17.354 18.25l0.72-3.605c0.082-0.422 0.052-0.736-0.090-0.889s-0.445-0.256-0.909-0.256h-1.447l-0.933 4.75h-1.811l1.629-8.25h1.811l-0.433 2.25h1.613c1.015 0 1.715 0.204 2.101 0.558s0.501 0.839 0.347 1.632l-0.758 3.81h-1.84zM27.418 15.456c-0.079 0.409-0.214 0.783-0.403 1.122s-0.437 0.649-0.743 0.93c-0.364 0.341-0.77 0.482-1.215 0.627s-1.013 0.115-1.703 0.115h-1.563l-0.433 2.5h-1.825l1.628-8.5h3.51c1.056 0 1.826 0.304 2.31 0.858s0.63 1.354 0.436 2.348zM23.98 13.5h-1.25l-0.682 3.5h1.11c0.736 0 1.284-0.073 1.644-0.35s0.603-0.707 0.73-1.355c0.121-0.623 0.066-1.108-0.165-1.364s-0.694-0.43-1.387-0.43zM9.733 13.5h-1.251l-0.682 3.5h1.11c0.736 0 1.284-0.073 1.644-0.35s0.603-0.707 0.729-1.355c0.121-0.623 0.066-1.108-0.165-1.364s-0.693-0.43-1.386-0.43z"></path>
</svg>
<svg id="icon-react-original" width="32" height="32" viewBox="0 0 32 32" x="0" y="96">
<path fill="#61dafb" d="M18.85 16c0 1.574-1.276 2.85-2.85 2.85s-2.85-1.276-2.85-2.85c0-1.574 1.276-2.85 2.85-2.85s2.85 1.276 2.85 2.85z"></path>
<path fill="#61dafb" d="M26.825 11.3c-0.55-0.2-1.125-0.4-1.725-0.575 0.15-0.6 0.275-1.2 0.375-1.775 0.525-3.3-0.050-5.625-1.65-6.525-0.475-0.275-1-0.4-1.6-0.4-1.75 0-3.975 1.3-6.225 3.475-2.25-2.175-4.475-3.475-6.225-3.475-0.6 0-1.125 0.125-1.6 0.4-1.6 0.925-2.175 3.25-1.65 6.525 0.1 0.575 0.225 1.175 0.375 1.775-0.6 0.175-1.175 0.35-1.725 0.575-3.125 1.2-4.825 2.85-4.825 4.7s1.725 3.5 4.825 4.7c0.55 0.2 1.125 0.4 1.725 0.575-0.15 0.6-0.275 1.2-0.375 1.775-0.525 3.3 0.050 5.625 1.65 6.525 0.475 0.275 1 0.4 1.6 0.4 1.775 0 4-1.3 6.225-3.475 2.25 2.175 4.475 3.475 6.225 3.475 0.6 0 1.125-0.125 1.6-0.4 1.6-0.925 2.175-3.25 1.65-6.525-0.1-0.575-0.225-1.175-0.375-1.775 0.6-0.175 1.175-0.35 1.725-0.575 3.125-1.2 4.825-2.85 4.825-4.7s-1.7-3.5-4.825-4.7zM23.125 3.675c1.025 0.6 1.375 2.45 0.95 5.075-0.075 0.525-0.2 1.075-0.35 1.65-1.3-0.3-2.675-0.5-4.125-0.625-0.85-1.2-1.725-2.275-2.6-3.25 1.85-1.825 3.725-3.075 5.25-3.075 0.325 0 0.625 0.075 0.875 0.225zM20.325 18.5c-0.45 0.8-0.975 1.6-1.525 2.4-0.925 0.075-1.85 0.1-2.8 0.1-0.975 0-1.9-0.025-2.8-0.1-0.55-0.8-1.050-1.6-1.5-2.4-0.475-0.825-0.925-1.675-1.325-2.5 0.4-0.825 0.85-1.675 1.325-2.5 0.45-0.8 0.975-1.6 1.525-2.4 0.925-0.075 1.85-0.1 2.8-0.1 0.975 0 1.9 0.025 2.8 0.1 0.55 0.8 1.050 1.6 1.5 2.4 0.475 0.825 0.925 1.675 1.325 2.5-0.425 0.825-0.85 1.65-1.325 2.5zM22.4 17.675c0.375 0.875 0.675 1.725 0.95 2.575-0.85 0.2-1.75 0.35-2.7 0.475 0.3-0.475 0.625-0.975 0.9-1.5 0.3-0.525 0.575-1.050 0.85-1.55zM16 24.45c-0.6-0.65-1.175-1.35-1.725-2.075 0.575 0.025 1.15 0.050 1.725 0.050s1.15-0.025 1.725-0.050c-0.55 0.725-1.125 1.425-1.725 2.075zM11.35 20.7c-0.95-0.125-1.85-0.275-2.7-0.475 0.275-0.825 0.575-1.7 0.95-2.575 0.275 0.5 0.55 1.025 0.85 1.525 0.3 0.55 0.6 1.025 0.9 1.525zM9.6 14.325c-0.375-0.875-0.675-1.725-0.95-2.575 0.85-0.2 1.75-0.35 2.7-0.475-0.3 0.475-0.625 0.975-0.9 1.5-0.3 0.525-0.575 1.050-0.85 1.55zM16 7.55c0.6 0.65 1.175 1.35 1.725 2.075-0.575-0.025-1.15-0.050-1.725-0.050s-1.15 0.025-1.725 0.050c0.55-0.725 1.125-1.425 1.725-2.075zM21.55 12.8l-0.9-1.5c0.95 0.125 1.85 0.275 2.7 0.475-0.275 0.825-0.575 1.7-0.95 2.575-0.275-0.525-0.55-1.050-0.85-1.55zM7.925 8.75c-0.425-2.625-0.075-4.475 0.95-5.075 0.25-0.15 0.55-0.225 0.875-0.225 1.5 0 3.375 1.225 5.25 3.075-0.875 0.95-1.75 2.050-2.6 3.25-1.45 0.125-2.825 0.35-4.125 0.625-0.15-0.575-0.25-1.125-0.35-1.65zM1.75 16c0-1.175 1.425-2.425 3.925-3.35 0.5-0.2 1.050-0.375 1.6-0.525 0.4 1.25 0.9 2.575 1.5 3.9-0.6 1.325-1.125 2.625-1.5 3.875-3.45-1-5.525-2.5-5.525-3.9zM8.875 28.325c-1.025-0.6-1.375-2.45-0.95-5.075 0.075-0.525 0.2-1.075 0.35-1.65 1.3 0.3 2.675 0.5 4.125 0.625 0.85 1.2 1.725 2.275 2.6 3.25-1.85 1.825-3.725 3.075-5.25 3.075-0.325 0-0.625-0.075-0.875-0.225zM24.075 23.25c0.425 2.625 0.075 4.475-0.95 5.075-0.25 0.15-0.55 0.225-0.875 0.225-1.5 0-3.375-1.225-5.25-3.075 0.875-0.95 1.75-2.050 2.6-3.25 1.45-0.125 2.825-0.35 4.125-0.625 0.15 0.575 0.25 1.125 0.35 1.65zM26.325 19.35c-0.5 0.2-1.050 0.375-1.6 0.525-0.4-1.25-0.9-2.575-1.5-3.9 0.6-1.325 1.125-2.625 1.5-3.875 3.45 1 5.525 2.5 5.525 3.9 0 1.175-1.45 2.425-3.925 3.35z"></path>
</svg>
<svg id="icon-sass-original" width="32" height="32" viewBox="0 0 32 32" x="32" y="96">
<path fill="#cb6699" d="M0.305 14.039c0 0.176 0.052 0.292 0.081 0.405 0.189 0.733 0.595 1.363 1.077 1.936 0.686 0.818 1.527 1.477 2.389 2.096 0.747 0.537 1.509 1.062 2.259 1.595 0.129 0.091 0.25 0.197 0.39 0.309-0.12 0.065-0.22 0.122-0.324 0.175-0.99 0.502-1.942 1.065-2.82 1.747-0.529 0.411-1.040 0.848-1.402 1.419-0.581 0.918-0.787 1.896-0.354 2.94 0.127 0.305 0.32 0.569 0.592 0.763 0.088 0.063 0.187 0.125 0.29 0.15 0.264 0.062 0.534 0.103 0.802 0.152l0.758-0c0.838-0.075 1.602-0.362 2.292-0.838 1.078-0.744 1.804-1.741 2.116-3.022 0.227-0.93 0.236-1.862-0.031-2.788-0.025-0.086-0.056-0.17-0.088-0.253s-0.071-0.164-0.116-0.268l1.719-0.988 0.026 0.022c-0.031 0.102-0.065 0.204-0.093 0.308-0.204 0.746-0.34 1.505-0.291 2.279 0.052 0.825 0.282 1.597 0.765 2.287 0.39 0.558 1.321 0.578 1.736 0.019 0.147-0.199 0.29-0.407 0.397-0.628 0.28-0.579 0.54-1.168 0.807-1.753l0.047-0.107c-0.019 0.277-0.042 0.52-0.052 0.764-0.016 0.38 0.006 0.758 0.136 1.12 0.111 0.309 0.3 0.541 0.655 0.581 0.242 0.028 0.436-0.083 0.614-0.224 0.278-0.22 0.505-0.491 0.673-0.8 0.475-0.873 0.963-1.74 1.394-2.635 0.466-0.968 0.873-1.964 1.306-2.948l0.072-0.174c0.102 0.402 0.174 0.795 0.305 1.168 0.152 0.432 0.341 0.854 0.547 1.264 0.097 0.194 0.086 0.32-0.049 0.482-0.564 0.68-1.118 1.368-1.673 2.056-0.123 0.152-0.245 0.306-0.347 0.472-0.062 0.101-0.103 0.224-0.12 0.341-0.033 0.224 0.105 0.441 0.346 0.493 0.22 0.047 0.453 0.065 0.677 0.048 0.774-0.057 1.477-0.329 2.099-0.789 0.805-0.596 1.064-1.41 0.869-2.375-0.053-0.262-0.146-0.516-0.237-0.768-0.041-0.114-0.044-0.194 0.031-0.299 0.644-0.919 1.194-1.895 1.705-2.892 0.020-0.039 0.041-0.078 0.076-0.12 0.166 0.863 0.415 1.694 0.862 2.448-0.228 0.22-0.454 0.419-0.658 0.639-0.45 0.483-0.84 1.009-1.043 1.649-0.087 0.276-0.155 0.556-0.116 0.851 0.061 0.458 0.436 0.755 0.886 0.651 0.963-0.223 1.795-0.677 2.403-1.481 0.409-0.541 0.446-1.145 0.275-1.778-0.047-0.172-0.103-0.341-0.163-0.538 0.238-0.074 0.47-0.162 0.709-0.217 1.245-0.284 2.476-0.235 3.675 0.215 0.7 0.262 1.266 0.702 1.602 1.393 0.41 0.845 0.183 1.646-0.613 2.18-0.074 0.050-0.159 0.089-0.221 0.151-0.038 0.038-0.061 0.115-0.051 0.168 0.005 0.031 0.087 0.069 0.133 0.069 0.262-0.002 0.474-0.139 0.678-0.28 0.511-0.353 0.883-0.828 0.963-1.454l0.016-0.047-0.019-0.407c-0.008-0.023 0.006-0.047 0.004-0.064-0.108-0.911-0.595-1.618-1.303-2.172-0.82-0.641-1.788-0.905-2.812-0.947-0.834-0.034-1.655 0.090-2.441 0.376-0.224 0.081-0.447 0.177-0.672 0.268-0.030-0.055-0.063-0.107-0.090-0.162-0.232-0.474-0.512-0.927-0.574-1.471-0.044-0.386-0.098-0.771-0.006-1.153 0.088-0.367 0.203-0.728 0.311-1.091 0.056-0.187 0.017-0.291-0.162-0.375-0.062-0.029-0.13-0.055-0.197-0.065-0.438-0.063-0.869-0.027-1.293 0.096-0.15 0.044-0.259 0.128-0.292 0.294-0.019 0.095-0.058 0.187-0.085 0.28-0.111 0.391-0.189 0.789-0.368 1.161-0.448 0.934-0.96 1.832-1.485 2.724-0.057 0.096-0.116 0.191-0.188 0.308-0.184-0.385-0.38-0.73-0.44-1.136-0.067-0.458-0.12-0.915-0.006-1.37 0.085-0.339 0.195-0.672 0.297-1.006 0.048-0.159 0.026-0.242-0.118-0.326-0.073-0.042-0.155-0.080-0.237-0.092-0.454-0.067-0.901-0.032-1.338 0.11-0.136 0.044-0.207 0.132-0.248 0.272-0.122 0.413-0.226 0.836-0.397 1.229-0.694 1.59-1.407 3.172-2.12 4.753-0.149 0.33-0.323 0.649-0.491 0.971-0.043 0.081-0.104 0.153-0.158 0.23-0.043-0.050-0.059-0.085-0.059-0.119 0.001-0.203-0.023-0.413 0.016-0.609 0.117-0.595 0.252-1.186 0.395-1.775 0.117-0.486 0.254-0.968 0.384-1.452 0.044-0.162 0.044-0.313-0.072-0.449-0.195-0.228-0.603-0.278-0.845-0.102l-0.107 0.061 0.021-0.172c0.051-0.37 0.061-0.738-0.040-1.102-0.127-0.454-0.45-0.715-0.921-0.701-0.22 0.007-0.45 0.044-0.653 0.124-0.855 0.335-1.512 0.928-2.072 1.642-0.051 0.065-0.118 0.124-0.189 0.163-0.723 0.401-1.449 0.797-2.174 1.195l-0.807 0.442c-0.216-0.206-0.413-0.421-0.636-0.602-0.682-0.556-1.375-1.098-2.061-1.648-0.609-0.487-1.198-0.995-1.649-1.64-0.336-0.48-0.552-1.005-0.572-1.599-0.026-0.756 0.188-1.447 0.573-2.091 0.493-0.823 1.164-1.483 1.903-2.082 0.781-0.633 1.626-1.169 2.502-1.66 1.225-0.686 2.486-1.293 3.837-1.694 1.386-0.411 2.791-0.646 4.241-0.482 0.57 0.064 1.123 0.195 1.632 0.474 0.389 0.213 0.709 0.492 0.857 0.929 0.146 0.43 0.142 0.865 0.041 1.301-0.206 0.883-0.69 1.612-1.299 2.263-0.998 1.067-2.216 1.793-3.588 2.273-0.791 0.277-1.605 0.45-2.441 0.521-0.682 0.057-1.35-0.003-1.996-0.241-0.428-0.157-0.8-0.398-1.1-0.747-0.053-0.063-0.122-0.13-0.222-0.072-0.098 0.057-0.115 0.15-0.082 0.245 0.055 0.156 0.105 0.319 0.191 0.46 0.214 0.351 0.527 0.606 0.871 0.825 0.661 0.42 1.399 0.562 2.165 0.594 1.162 0.050 2.296-0.123 3.413-0.435 1.596-0.445 2.983-1.231 4.096-2.471 0.927-1.033 1.588-2.198 1.73-3.605 0.069-0.687-0.005-1.359-0.326-1.986-0.349-0.679-0.903-1.183-1.566-1.531-0.965-0.506-2.008-0.801-3.083-0.801h-1.078c-1.303 0-2.562 0.373-3.786 0.819-0.927 0.337-1.835 0.735-2.717 1.176-1.921 0.96-3.709 2.117-5.179 3.708-0.732 0.793-1.352 1.668-1.708 2.697-0.104 0.302-0.203 0.625-0.278 0.937zM7.286 22.59c-0.083 1.115-0.588 2.018-1.414 2.75-0.465 0.412-0.997 0.704-1.618 0.808-0.225 0.037-0.455 0.046-0.673-0.047-0.311-0.133-0.381-0.409-0.387-0.703-0.009-0.469 0.155-0.893 0.38-1.297 0.294-0.526 0.725-0.927 1.185-1.302 0.725-0.59 1.511-1.090 2.317-1.561l0.061-0.025c0.125 0.46 0.184 0.914 0.149 1.377zM13.576 17.745c-0.059 0.356-0.132 0.712-0.236 1.057-0.36 1.194-0.821 2.352-1.321 3.493-0.092 0.211-0.226 0.404-0.343 0.604-0.018 0.031-0.045 0.058-0.071 0.084-0.145 0.143-0.281 0.135-0.354-0.052-0.085-0.217-0.137-0.449-0.182-0.679-0.030-0.154-0.023-0.316-0.033-0.474 0.010-1.123 0.352-2.145 0.934-3.095 0.24-0.392 0.501-0.765 0.899-1.014 0.123-0.076 0.26-0.137 0.399-0.177 0.213-0.060 0.343 0.038 0.308 0.252zM17.867 23.212l1.542-1.801c0.064 0.669-1.073 2.004-1.542 1.801zM22.793 22c-0.109 0.063-0.228 0.108-0.34 0.165-0.102 0.053-0.136-0-0.139-0.088-0.002-0.060 0.007-0.122 0.023-0.18 0.208-0.735 0.591-1.361 1.162-1.872l0.040-0.020c0.271 0.759-0.042 1.592-0.747 1.995z"></path>
</svg>
<svg id="icon-webpack-plain" width="32" height="32" viewBox="0 0 32 32" x="64" y="96">
<path fill="#1c78c0" d="M29.323 24.525l-12.762 7.225v-5.628l7.94-4.372 4.823 2.775zM30.198 23.735v-15.098l-4.67 2.7v9.703l4.668 2.692zM2.678 24.525l12.75 7.22v-5.622l-7.942-4.372zM1.802 23.735v-15.098l4.67 2.7v9.703zM2.35 7.66l13.090-7.41v5.44l-8.455 4.65zM29.645 7.66l-13.085-7.41v5.44l8.455 4.647 4.635-2.678z"></path>
<path fill="#1c78c0" d="M15.44 24.843l-7.848-4.317v-8.545l7.848 4.52zM16.56 24.843l7.848-4.313v-8.55l-7.848 4.52zM8.125 11l7.875-4.335 7.875 4.335-7.875 4.54-7.875-4.54z"></path>
</svg>
<svg id="icon-wordpress-plain" width="32" height="32" viewBox="0 0 32 32" x="96" y="96">
<path fill="#494949" d="M16.023 31.556c8.569-0.013 15.505-6.983 15.505-15.581 0-8.458-6.904-15.424-15.153-15.572-8.663-0.154-15.902 6.875-15.904 15.399-0.003 8.77 6.903 15.766 15.552 15.754zM15.998 1.157c8.227-0.003 14.781 6.681 14.779 15.070-0.003 7.92-6.731 14.545-14.773 14.547-8.193 0.002-14.781-6.641-14.781-14.902 0-8.048 6.691-14.712 14.775-14.715zM9.789 8.974c0.134 0.448-0.242 0.604-0.642 0.636-0.421 0.033-0.842 0.064-1.331 0.101 1.614 4.809 3.204 9.546 4.831 14.393 0.116-0.19 0.164-0.243 0.185-0.306 0.893-2.671 1.792-5.339 2.663-8.017 0.079-0.244 0.040-0.568-0.047-0.819-0.461-1.33-1.013-2.631-1.417-3.977-0.276-0.921-0.643-1.518-1.732-1.411-0.185 0.018-0.412-0.381-0.62-0.587 0.251-0.15 0.501-0.426 0.754-0.43 2.218-0.034 4.437-0.034 6.655 0.002 0.255 0.004 0.504 0.287 0.755 0.441-0.22 0.201-0.41 0.502-0.667 0.58-0.413 0.124-0.87 0.101-1.364 0.145 1.616 4.806 3.198 9.514 4.837 14.39 0.733-2.434 1.415-4.669 2.078-6.91 0.591-2 0.239-3.868-0.831-5.63-0.322-0.53-0.716-1.044-0.899-1.621-0.207-0.657-0.379-1.405-0.269-2.065 0.186-1.117 1.044-1.672 2.203-1.778-6.348-5.891-16.323-3.783-19.999 2.619 1.415-0.065 2.766-0.151 4.118-0.169 0.255-0.003 0.679 0.213 0.739 0.413zM12.319 28.467c-0.030 0.086-0.031 0.182-0.055 0.326 2.736 0.759 5.419 0.704 8.165-0.221l-4.195-11.49c-1.342 3.903-2.63 7.644-3.915 11.386zM10.204 27.947l-6.32-17.337c-2.851 5.57-0.682 14.067 6.32 17.337zM29.311 16.807c0.201-2.633-0.708-6.28-1.492-6.781-0.087 0.969-0.026 2.046-0.305 3.029-0.654 2.314-1.454 4.587-2.225 6.867-0.837 2.478-1.708 4.945-2.564 7.416 4.023-2.385 6.234-5.904 6.586-10.531z"></path>
</svg>
</svg>
