<svg xmlns="http://www.w3.org/2000/svg" xmlns:xlink="http://www.w3.org/1999/xlink" width="160" height="128"><svg id="icon-css3-plain-wordmark" width="32" height="32" x="32"><path fill="#ececec" d="M4.918 6.5l2.017 22.623 9.052 2.512 9.077-2.516 2.02-22.62H4.919zM22.22 19.122l-.587 5.473.002.469-5.639 1.578-5.68-1.556-.384-4.335h2.785l.197 2.192 3.087.824-.001.004v-.008l3.098-.874.327-3.637h-6.477l-.056-.589-.127-1.412-.066-.75h6.972l.253-2.75H9.306l-.056-.647-.127-1.508-.066-.845h13.899l-.067.834-.671 7.538zm.03-15.528L20.463 1.5h1.787V.25h-4v1.091l2.098 1.909H18.25V4.5h4zm-4.75 0L15.798 1.5H17.5V.25h-3.75v1.091l1.933 1.909H13.75V4.5h3.75zM13 3.25h-2V1.5h2V.25H9.5V4.5H13z"/></svg><svg id="icon-express-original" width="32" height="32" x="64"><path fill="#ececec" d="M31.668 24.61c-1.14.29-1.845.012-2.477-.938-1.42-2.128-2.988-4.157-4.5-6.225-.195-.267-.398-.53-.65-.863-1.79 2.415-3.578 4.715-5.255 7.107-.6.855-1.23 1.227-2.35.925l6.73-9.033-6.265-8.158c1.078-.21 1.823-.103 2.482.863 1.457 2.13 3.065 4.157 4.668 6.303 1.613-2.138 3.2-4.168 4.7-6.277.602-.855 1.25-1.18 2.332-.865-.82 1.088-1.622 2.158-2.43 3.22-1.09 1.432-2.16 2.883-3.29 4.285-.402.5-.337.825.023 1.298 2.09 2.747 4.155 5.523 6.282 8.358zM.333 15.435c.18-.902.3-1.822.55-2.707 1.5-5.357 7.65-7.585 11.875-4.265 2.475 1.947 3.09 4.692 2.967 7.787H1.775c-.21 5.553 3.787 8.905 8.883 7.195 1.787-.6 2.84-2 3.367-3.75.268-.878.71-1.015 1.535-.765-.422 2.19-1.38 4.02-3.38 5.165-3 1.715-7.282 1.16-9.535-1.223C1.315 21.472.75 19.729.5 17.847c-.037-.3-.115-.595-.175-.892q.008-.76.008-1.52zm1.467-.372h12.607c-.082-4.015-2.582-6.867-6-6.893-3.75-.03-6.445 2.755-6.607 6.893z"/></svg><svg id="icon-git-plain" width="32" height="32" x="96"><path fill="#ececec" d="M31.186 14.595L17.407.817a2.033 2.033 0 0 0-2.874 0l-2.861 2.861 3.63 3.629a2.413 2.413 0 0 1 3.056 3.077l3.498 3.498a2.417 2.417 0 0 1 2.498 3.994 2.418 2.418 0 0 1-3.947-2.63l-3.262-3.262v8.585a2.418 2.418 0 1 1-2.78 3.878c-.944-.946-1.022-2.476-.078-3.421.233-.233.464-.41.714-.527v-8.665a2.551 2.551 0 0 1-.714-.528c-.715-.715-.849-1.765-.482-2.644l-3.558-3.578-9.438 9.447a2.033 2.033 0 0 0 .005 2.875l13.781 13.778a2.034 2.034 0 0 0 2.876 0l13.715-13.715a2.034 2.034 0 0 0 .001-2.875z"/></svg><svg id="icon-github-original" width="32" height="32" x="128"><path fill="#ececec" d="M16 1.276C7.663 1.276.903 8.035.903 16.373c0 6.671 4.326 12.329 10.324 14.326.754.14 1.031-.328 1.031-.726 0-.36-.014-1.549-.021-2.811-4.2.913-5.086-1.781-5.086-1.781-.687-1.745-1.676-2.209-1.676-2.209-1.37-.937.103-.918.103-.918 1.516.106 2.314 1.556 2.314 1.556 1.347 2.308 3.532 1.64 4.393 1.255.136-.976.527-1.642.959-2.019-3.353-.381-6.878-1.676-6.878-7.461 0-1.648.59-2.995 1.556-4.053-.157-.38-.674-1.915.146-3.995 0 0 1.268-.406 4.152 1.548a14.461 14.461 0 0 1 3.779-.509c1.282.006 2.575.174 3.782.508 2.881-1.953 4.148-1.548 4.148-1.548.822 2.079.305 3.615.148 3.995.968 1.057 1.554 2.404 1.554 4.053 0 5.799-3.532 7.075-6.893 7.449.542.468 1.024 1.387 1.024 2.796 0 2.02-.017 3.646-.017 4.143 0 .402.272.872 1.037.724 5.995-1.998 10.316-7.655 10.316-14.323 0-8.338-6.76-15.097-15.097-15.097z"/><path d="M6.621 22.951c-.033.075-.151.098-.259.046-.11-.049-.171-.151-.136-.227.032-.078.151-.099.26-.047.11.049.173.152.134.227zm.611.683c-.072.067-.213.036-.308-.07-.099-.105-.117-.246-.044-.314.074-.067.211-.035.31.07.098.107.118.246.043.314zm.596.869c-.093.064-.244.004-.338-.13-.093-.134-.093-.296.003-.36.093-.064.242-.006.338.127.092.136.092.297-.003.363zm.815.84c-.082.091-.259.067-.388-.058-.132-.122-.168-.295-.086-.386.084-.091.261-.066.391.058.132.122.171.295.083.386zm1.125.488c-.037.118-.206.172-.377.122-.171-.052-.283-.19-.248-.309s.206-.175.378-.121c.171.052.283.189.247.309zm1.236.09c.004.125-.141.227-.32.23-.181.004-.327-.097-.329-.219 0-.126.142-.227.322-.231.179-.003.326.097.326.22zm1.149-.195c.021.121-.103.246-.281.279-.175.032-.338-.043-.36-.163-.021-.125.105-.249.28-.282.178-.031.338.043.361.166z"/></svg><svg id="icon-heroku-plain" width="32" height="32" y="32"><path fill="#ececec" d="M25.525.5H6.475A2.966 2.966 0 0 0 3.5 3.475V28.55a2.966 2.966 0 0 0 2.975 2.975H25.55a2.966 2.966 0 0 0 2.975-2.975V3.475a3.004 3.004 0 0 0-3-2.975zM9.25 27.175v-7.05l3.525 3.525-3.525 3.525zm13.25.075h-3.275l.025-.05V14.85s.775-2.95-9.925 1.2c-.025.05-.05-11.425-.05-11.425L12.75 4.6v7.35s9.75-3.85 9.75 2.925V27.25zM21.2 9h-3.7c1.325-1.5 2.55-4.25 2.55-4.25h3.825S23.225 6.5 21.2 9z"/></svg><svg id="icon-html5-plain-wordmark" width="32" height="32" x="32" y="32"><path fill="#ececec" d="M4.892 6.75l2.022 22.48 9.072 2.421 9.098-2.375L27.108 6.75H4.893zm18.01 5.118l-.127 1.458-.056.674H12.077l.254 3h10.135l-.068.558-.654 7.227-.048.422-5.704 1.535-5.694-1.479-.386-4.264h2.792l.198 2.115 3.096.785.002-.058v.003l3.103-.662.324-3.432H9.788l-.684-7.709-.067-.791h13.931l-.067.618zM6.989.407h1.406v1.389h1.286V.407h1.406v4.205H9.681V3.204H8.395v1.408H6.989V.407zm5.945 1.395h-1.238V.407h3.881v1.395h-1.238v2.811h-1.406V1.802zm3.26-1.395h1.465l.902 1.478.901-1.478h1.466v4.205h-1.4V2.528l-.967 1.495h-.024l-.968-1.495v2.084h-1.375V.407zm5.434 0h1.406v2.816h1.977v1.39h-3.383V.407z"/></svg><svg id="icon-illustrator-plain" width="32" height="32" x="64" y="32"><path fill="#ececec" d="M11.989 17.25h3.843c-.662-2.25-1.313-4.33-1.954-6.444-.622 2.122-1.253 4.194-1.889 6.444zm19.039-17H.718C.172.25.25.369.25.896v30.349c0 .527-.078.505.43.505h30.387c.508 0 .683.021.683-.506V.934c0-.566-.175-.685-.722-.685zM19.325 24c-.409 0-.82-.033-1.227-.004-.294.022-.392-.102-.47-.357-.378-1.233-.781-2.465-1.16-3.697-.076-.248-.185-.338-.454-.335-1.381.016-2.762.015-4.143-.002-.291-.003-.425.074-.508.363-.351 1.226-.736 2.442-1.091 3.667-.077.265-.194.358-.476.351-.829-.021-1.66-.008-2.569-.008.24-.761.457-1.465.682-2.166 1.379-4.3 2.762-8.6 4.13-12.903.095-.3.228-.392.536-.385.972.021 1.944.005 2.916 0 .182-.001.306.009.372.216 1.626 5.029 3.258 10.089 4.889 15.117.007.023.003.143.006.143h-1.434zm5.175 0h-3V12.75h3V24zm-1.587-12.768c-.916-.001-1.572-.632-1.578-1.518-.006-.883.677-1.54 1.602-1.541.932-.001 1.589.634 1.596 1.543.006.886-.667 1.517-1.619 1.515z"/></svg><svg id="icon-jasmine-plain" width="32" height="32" x="96" y="32"><path fill="#ececec" d="M17.122 13.175h-2.36l-.637-.82v-6.43h3.595v6.43l-.598.82zm-3.192.6l-.73 2.245-.975.352-6.117-1.988 1.112-3.418 6.115 1.985.595.822zm-.42 3.16l1.91 1.387.033 1.035-3.777 5.205-2.91-2.113 3.783-5.205.963-.31zm2.93 1.397l1.913-1.387.995.29 3.78 5.203-2.907 2.113-3.78-5.203v-1.015zm2.27-2.274l-.73-2.248.582-.857 6.115-1.985 1.113 3.418-6.117 1.988-.962-.315z"/><path fill="#ececec" d="M16 .352C7.358.352.352 7.358.352 16S7.358 31.648 16 31.648 31.648 24.642 31.648 16 24.642.352 16 .352zm-.085 27.875c-6.835 0-12.375-5.54-12.375-12.375S9.08 3.477 15.915 3.477 28.29 9.017 28.29 15.852v.002c0 6.835-5.54 12.375-12.375 12.375z"/><path fill="#ececec" d="M15.395 20.747h.98v4.878h-.98v-4.878zm5.314-3.01l.303-.932 4.639 1.507-.303.932-4.639-1.507zm-1.27-5.972l-.793-.576 2.867-3.946.793.576-2.867 3.946zm-6.101-.575l-.793.576L9.678 7.82l.793-.576 2.867 3.946zm-2.489 5.616l.303.932-4.639 1.507-.303-.932 4.639-1.507z"/></svg><svg id="icon-javascript-plain" width="32" height="32" x="128" y="32"><path fill="#ececec" d="M.5.25V31.5h31.25V.25H.5zm16.53 26.628c-.461.937-1.342 1.553-2.362 1.85-1.568.36-3.067.155-4.183-.515-.746-.458-1.329-1.163-1.725-1.975l2.38-1.457c.021.009.083.122.167.268.303.509.565.869 1.08 1.121.505.172 1.615.283 2.044-.607.262-.453.178-1.907.178-3.516 0-2.529.011-5.047.011-7.547h2.927c0 2.75.015 5.355 0 8.038.006 1.645.149 3.111-.517 4.34zm12.143-.827c-1.018 3.48-6.691 3.593-8.957 1.294-.479-.541-.779-.824-1.065-1.449 1.205-.693 1.205-.693 2.377-1.371.637.979 1.226 1.517 2.285 1.737 1.437.175 2.883-.318 2.558-1.845-.333-1.247-2.942-1.55-4.718-2.883-1.803-1.211-2.225-4.153-.744-5.834.494-.622 1.336-1.086 2.219-1.309l.922-.119c1.77-.036 2.877.432 3.689 1.339.226.229.41.476.756 1.011-.943.601-.94.595-2.291 1.47-.288-.622-.767-1.012-1.273-1.181-.785-.238-1.776.021-1.982.851-.071.256-.056.494.057.916.318.726 1.386 1.041 2.344 1.482 2.758 1.119 3.689 2.318 3.918 3.745.221 1.229-.053 2.026-.095 2.145z"/></svg><svg id="icon-mysql-plain" width="32" height="32" y="64"><path fill="#ececec" d="M31.369 30.696l-.654-.634c-.62-.823-1.417-1.546-2.254-2.146-.667-.479-2.165-1.126-2.444-1.902l-.051-.049c.473-.053 1.026-.224 1.462-.342.733-.197 1.339-.146 2.096-.341.341-.098.725-.195.975-.293v-.195c-.25-.393-.607-.913-1.024-1.268-1.092-.93-2.26-1.859-3.488-2.634-.681-.43-1.51-.709-2.232-1.073-.243-.123-.663-.186-.823-.39-.379-.483-.582-1.096-.875-1.658a63.124 63.124 0 0 1-1.755-3.708c-.37-.846-.611-1.68-1.072-2.439-2.215-3.642-4.599-5.84-8.292-8-.786-.46-1.732-.641-2.732-.878l-1.609-.098c-.328-.136-.668-.537-.976-.732C4.397 1.143 1.259-.538.352 1.672c-.572 1.395.855 2.756 1.365 3.464.359.495.817 1.052 1.073 1.609.169.367.197.734.342 1.122.354.956.663 1.995 1.122 2.878.232.447.487.918.78 1.317.179.245.487.353.536.732-.301.421-.318 1.076-.487 1.61-.763 2.404-.474 5.392.634 7.171.34.546 1.141 1.718 2.244 1.268.964-.392.806-1.61 1.082-2.683.062-.243-.046-.422.204-.585v.049c.25.585.527 1.171.82 1.756.65 1.047 1.722 2.14 2.7 2.878.507.383.98 1.044 1.48 1.268v-.025h.055c-.127-.25-.325-.292-.488-.451a11.289 11.289 0 0 1-1.122-1.274c-.889-1.207-1.675-2.53-2.39-3.905-.342-.657-.639-1.382-.927-2.05-.111-.258-.11-.648-.341-.781-.316.489-.78.885-1.025 1.463-.39.924-.441 2.051-.585 3.219-.086.03-.048.009-.098.049-.679-.164-.918-.863-1.171-1.463-.639-1.517-.757-3.961-.195-5.707.146-.452.803-1.875.537-2.293-.127-.416-.546-.658-.78-.976a7.694 7.694 0 0 1-.781-1.366c-.523-1.183-.766-2.511-1.317-3.707-.263-.572-.708-1.151-1.073-1.659-.404-.563-.857-.978-1.171-1.659-.111-.242-.263-.629-.097-.878.052-.168.127-.238.293-.292.283-.218 1.071.073 1.366.195.782.325 1.435.625 2.098 1.064.318.211.64.473 1.024.723h.439c.687 0 1.456.058 2.098.253 1.134.345 2.15.885 3.073 1.468 2.812 1.776 5.11 4.305 6.683 7.319.253.486.363.95.585 1.464.45 1.038 1.016 2.107 1.463 3.122.447 1.013.881 2.035 1.512 2.878.332.443 1.613.681 2.195.927.408.172 1.077.352 1.463.585.738.445 1.453.976 2.146 1.464.346.244 1.41.779 1.463 1.22-1.716-.047-3.026.113-4.146.585-.318.134-.826.138-.878.537.175.183.202.457.341.683.267.433.719 1.013 1.122 1.317.441.332.894.688 1.366.976.84.512 1.777.804 2.585 1.317.477.302.989.683 1.454 1.024.23.169.223.431.723.537v-.049c-.25-.199-.236-.473-.381-.682zM7.378 5.866a3.391 3.391 0 0 0-.878.097V6h.05c.171.25.472.582.683.885l.488 1.027.048-.047c.302-.213.441-.553.439-1.073-.121-.127-.139-.287-.244-.439-.139-.202-.41-.317-.585-.487z"/></svg><svg id="icon-nodejs-plain" width="32" height="32" x="32" y="64"><path fill="#ececec" d="M28.169 7.583L17.133 1.182a2.388 2.388 0 0 0-2.307 0L3.704 7.583c-.717.413-1.205 1.189-1.205 2.018v12.786c0 .83.498 1.606 1.216 2.021l2.932 1.672c1.407.693 1.796.693 2.437.693 2.083 0 3.165-1.26 3.165-3.457V10.693c0-.178.111-.444-.064-.444H10.78c-.178 0-.53.265-.53.443v12.622c0 .974-.904 1.943-2.55 1.12l-3.03-1.753a.334.334 0 0 1-.169-.295V9.6c0-.12.116-.242.223-.303l11.095-6.39a.376.376 0 0 1 .354 0l10.991 6.389c.105.063.088.181.088.305v12.786c0 .122.023.241-.081.299L16.138 29.08a.323.323 0 0 1-.321 0l-2.829-1.687c-.085-.049-.188-.067-.27-.021-.786.446-.932.505-1.67.761-.182.063-.45.173.102.482l3.7 2.189a2.334 2.334 0 0 0 2.328 0l10.994-6.395c.718-.418 1.081-1.191 1.081-2.021V9.602c0-.83-.363-1.604-1.081-2.018zm-8.737 12.778c-2.932 0-3.577-.809-3.793-2.267-.025-.157-.159-.345-.319-.345h-1.433c-.177 0-.32.215-.32.392 0 1.866 1.015 4.128 5.864 4.128 3.509 0 5.522-1.364 5.522-3.777 0-2.393-1.617-3.021-5.02-3.471-3.441-.455-3.79-.684-3.79-1.491 0-.665.296-1.551 2.843-1.551 2.276 0 3.115.489 3.46 2.023.03.144.162.248.31.248h1.439a.33.33 0 0 0 .235-.099.324.324 0 0 0 .084-.245c-.223-2.642-1.978-3.873-5.528-3.873-3.158 0-5.041 1.333-5.041 3.569 0 2.424 1.874 3.095 4.905 3.394 3.626.355 3.908.886 3.908 1.599 0 1.239-.994 1.767-3.327 1.767z"/></svg><svg id="icon-npm-original-wordmark" width="32" height="32" x="64" y="64"><path fill="#ececec" d="M.5 9.625h31v10.928H16v1.823H9.11v-1.823H.5zm1.723 9.108h3.445v-5.465h1.723v5.465h1.723v-7.285h-6.89zm8.609-7.286v9.105h3.445v-1.82h3.445v-7.285zm3.445 1.823H16v3.64h-1.723zm5.168-1.823v7.285h3.445v-5.465h1.723v5.465h1.723v-5.465h1.723v5.465h1.723v-7.285z"/></svg><svg id="icon-photoshop-plain" width="32" height="32" x="96" y="64"><path fill="#ececec" d="M12.562 10.404c-.921-.231-1.842-.157-2.815-.005 0 1.701-.004 3.357.009 5.013.001.085.128.232.21.243 1.061.143 2.116.155 3.108-.329 1.026-.5 1.549-1.546 1.413-2.773-.123-1.118-.785-1.862-1.926-2.149zm19.188 5.587V.822c0-.524.006-.571-.503-.571H.87C.375.251.25.298.25.797v30.377c0 .505.063.505.552.505 10.139 0 20.308-.002 30.447.009.393 0 .499-.104.498-.49-.014-5.069.003-10.139.003-15.208zm-17.662 1.46c-1.389.495-2.838.523-4.338.407V23.5H7v-.351c0-4.724-.022-9.447-.035-14.171-.002-.392.061-.582.503-.627 2.083-.213 4.154-.452 6.225.033 2.226.522 3.51 1.994 3.608 4.027.121 2.518-.986 4.244-3.213 5.038zm11.078 3.188c-.106 1.443-.919 2.39-2.254 2.848-1.785.613-3.561.471-5.306-.223-.286-.114-.341-.258-.247-.549.172-.532.297-1.078.43-1.572.738.216 1.439.487 2.166.614.513.09 1.068.037 1.59-.044.468-.073.804-.391.881-.893.078-.51-.076-.952-.526-1.224-.358-.215-.753-.37-1.131-.55-.608-.291-1.256-.519-1.817-.883-2.208-1.432-1.489-4.096-.016-5.099.788-.537 1.66-.774 2.594-.807 1.098-.039 2.156.151 3.195.656l-.549 1.947c-.435-.154-.84-.354-1.268-.434a5.904 5.904 0 0 0-1.551-.105c-.686.056-1.088.53-1.088 1.117 0 .348.132.642.422.811.416.242.858.442 1.297.645.474.219.974.388 1.431.638 1.218.668 1.851 1.7 1.748 3.106z"/></svg><svg id="icon-php-plain" width="32" height="32" x="128" y="64"><path fill="#ececec" d="M16 8.26C7.565 8.26.726 11.726.726 16S7.564 23.74 16 23.74 31.273 20.275 31.273 16s-6.838-7.74-15.274-7.74zm-3.974 9.248c-.364.341-.769.482-1.215.627s-1.013.115-1.703.115H7.545l-.433 2.5H5.287l1.629-8.5h3.51c1.056 0 1.826.304 2.311.858s.63 1.341.437 2.334c-.08.409-.214.79-.403 1.129s-.438.656-.743.937zm5.328.742l.72-3.605c.082-.422.052-.736-.09-.889s-.445-.256-.909-.256h-1.447l-.933 4.75h-1.811L14.513 10h1.811l-.433 2.25h1.613c1.015 0 1.715.204 2.101.558s.501.839.347 1.632l-.758 3.81h-1.84zm10.064-2.794c-.079.409-.214.783-.403 1.122s-.437.649-.743.93c-.364.341-.77.482-1.215.627s-1.013.115-1.703.115h-1.563l-.433 2.5h-1.825l1.628-8.5h3.51c1.056 0 1.826.304 2.31.858s.63 1.354.436 2.348zM23.98 13.5h-1.25l-.682 3.5h1.11c.736 0 1.284-.073 1.644-.35s.603-.707.73-1.355c.121-.623.066-1.108-.165-1.364s-.694-.43-1.387-.43zm-14.247 0H8.482L7.8 17h1.11c.736 0 1.284-.073 1.644-.35s.603-.707.729-1.355c.121-.623.066-1.108-.165-1.364s-.693-.43-1.386-.43z"/></svg><svg id="icon-react-original" width="32" height="32" y="96"><path fill="#ececec" d="M18.85 16a2.85 2.85 0 1 1-5.7 0 2.85 2.85 0 0 1 5.7 0z"/><path fill="#ececec" d="M26.825 11.3c-.55-.2-1.125-.4-1.725-.575.15-.6.275-1.2.375-1.775.525-3.3-.05-5.625-1.65-6.525-.475-.275-1-.4-1.6-.4-1.75 0-3.975 1.3-6.225 3.475-2.25-2.175-4.475-3.475-6.225-3.475-.6 0-1.125.125-1.6.4-1.6.925-2.175 3.25-1.65 6.525.1.575.225 1.175.375 1.775-.6.175-1.175.35-1.725.575C2.05 12.5.35 14.15.35 16s1.725 3.5 4.825 4.7c.55.2 1.125.4 1.725.575-.15.6-.275 1.2-.375 1.775-.525 3.3.05 5.625 1.65 6.525.475.275 1 .4 1.6.4 1.775 0 4-1.3 6.225-3.475 2.25 2.175 4.475 3.475 6.225 3.475.6 0 1.125-.125 1.6-.4 1.6-.925 2.175-3.25 1.65-6.525-.1-.575-.225-1.175-.375-1.775.6-.175 1.175-.35 1.725-.575 3.125-1.2 4.825-2.85 4.825-4.7s-1.7-3.5-4.825-4.7zm-3.7-7.625c1.025.6 1.375 2.45.95 5.075-.075.525-.2 1.075-.35 1.65-1.3-.3-2.675-.5-4.125-.625a36.071 36.071 0 0 0-2.6-3.25C18.85 4.7 20.725 3.45 22.25 3.45c.325 0 .625.075.875.225zm-2.8 14.825c-.45.8-.975 1.6-1.525 2.4-.925.075-1.85.1-2.8.1-.975 0-1.9-.025-2.8-.1-.55-.8-1.05-1.6-1.5-2.4a40.278 40.278 0 0 1-1.325-2.5c.4-.825.85-1.675 1.325-2.5.45-.8.975-1.6 1.525-2.4.925-.075 1.85-.1 2.8-.1.975 0 1.9.025 2.8.1.55.8 1.05 1.6 1.5 2.4.475.825.925 1.675 1.325 2.5-.425.825-.85 1.65-1.325 2.5zm2.075-.825c.375.875.675 1.725.95 2.575-.85.2-1.75.35-2.7.475.3-.475.625-.975.9-1.5.3-.525.575-1.05.85-1.55zM16 24.45c-.6-.65-1.175-1.35-1.725-2.075.575.025 1.15.05 1.725.05s1.15-.025 1.725-.05A28.108 28.108 0 0 1 16 24.45zm-4.65-3.75c-.95-.125-1.85-.275-2.7-.475.275-.825.575-1.7.95-2.575.275.5.55 1.025.85 1.525.3.55.6 1.025.9 1.525zM9.6 14.325a29.493 29.493 0 0 1-.95-2.575c.85-.2 1.75-.35 2.7-.475-.3.475-.625.975-.9 1.5-.3.525-.575 1.05-.85 1.55zM16 7.55c.6.65 1.175 1.35 1.725 2.075-.575-.025-1.15-.05-1.725-.05s-1.15.025-1.725.05A28.108 28.108 0 0 1 16 7.55zm5.55 5.25l-.9-1.5c.95.125 1.85.275 2.7.475-.275.825-.575 1.7-.95 2.575-.275-.525-.55-1.05-.85-1.55zM7.925 8.75c-.425-2.625-.075-4.475.95-5.075.25-.15.55-.225.875-.225 1.5 0 3.375 1.225 5.25 3.075-.875.95-1.75 2.05-2.6 3.25a33.99 33.99 0 0 0-4.125.625c-.15-.575-.25-1.125-.35-1.65zM1.75 16c0-1.175 1.425-2.425 3.925-3.35.5-.2 1.05-.375 1.6-.525.4 1.25.9 2.575 1.5 3.9-.6 1.325-1.125 2.625-1.5 3.875-3.45-1-5.525-2.5-5.525-3.9zm7.125 12.325c-1.025-.6-1.375-2.45-.95-5.075.075-.525.2-1.075.35-1.65 1.3.3 2.675.5 4.125.625.85 1.2 1.725 2.275 2.6 3.25-1.85 1.825-3.725 3.075-5.25 3.075-.325 0-.625-.075-.875-.225zm15.2-5.075c.425 2.625.075 4.475-.95 5.075-.25.15-.55.225-.875.225-1.5 0-3.375-1.225-5.25-3.075.875-.95 1.75-2.05 2.6-3.25a33.99 33.99 0 0 0 4.125-.625c.15.575.25 1.125.35 1.65zm2.25-3.9c-.5.2-1.05.375-1.6.525-.4-1.25-.9-2.575-1.5-3.9.6-1.325 1.125-2.625 1.5-3.875 3.45 1 5.525 2.5 5.525 3.9 0 1.175-1.45 2.425-3.925 3.35z"/></svg><svg id="icon-sass-original" width="32" height="32" x="32" y="96"><path fill="#ececec" d="M.305 14.039c0 .176.052.292.081.405.189.733.595 1.363 1.077 1.936.686.818 1.527 1.477 2.389 2.096.747.537 1.509 1.062 2.259 1.595.129.091.25.197.39.309-.12.065-.22.122-.324.175-.99.502-1.942 1.065-2.82 1.747-.529.411-1.04.848-1.402 1.419-.581.918-.787 1.896-.354 2.94.127.305.32.569.592.763a.882.882 0 0 0 .29.15c.264.062.534.103.802.152h.758a4.724 4.724 0 0 0 2.292-.838c1.078-.744 1.804-1.741 2.116-3.022.227-.93.236-1.862-.031-2.788-.025-.086-.056-.17-.088-.253s-.071-.164-.116-.268l1.719-.988.026.022c-.031.102-.065.204-.093.308-.204.746-.34 1.505-.291 2.279.052.825.282 1.597.765 2.287.39.558 1.321.578 1.736.019.147-.199.29-.407.397-.628.28-.579.54-1.168.807-1.753l.047-.107c-.019.277-.042.52-.052.764-.016.38.006.758.136 1.12.111.309.3.541.655.581.242.028.436-.083.614-.224.278-.22.505-.491.673-.8.475-.873.963-1.74 1.394-2.635.466-.968.873-1.964 1.306-2.948l.072-.174c.102.402.174.795.305 1.168.152.432.341.854.547 1.264.097.194.086.32-.049.482-.564.68-1.118 1.368-1.673 2.056a4.542 4.542 0 0 0-.347.472.921.921 0 0 0-.12.341.435.435 0 0 0 .346.493c.22.047.453.065.677.048a3.972 3.972 0 0 0 2.099-.789c.805-.596 1.064-1.41.869-2.375-.053-.262-.146-.516-.237-.768-.041-.114-.044-.194.031-.299.644-.919 1.194-1.895 1.705-2.892a.608.608 0 0 1 .076-.12c.166.863.415 1.694.862 2.448-.228.22-.454.419-.658.639-.45.483-.84 1.009-1.043 1.649-.087.276-.155.556-.116.851.061.458.436.755.886.651.963-.223 1.795-.677 2.403-1.481.409-.541.446-1.145.275-1.778-.047-.172-.103-.341-.163-.538.238-.074.47-.162.709-.217 1.245-.284 2.476-.235 3.675.215.7.262 1.266.702 1.602 1.393.41.845.183 1.646-.613 2.18-.074.05-.159.089-.221.151a.214.214 0 0 0-.051.168c.005.031.087.069.133.069.262-.002.474-.139.678-.28.511-.353.883-.828.963-1.454l.016-.047-.019-.407c-.008-.023.006-.047.004-.064-.108-.911-.595-1.618-1.303-2.172-.82-.641-1.788-.905-2.812-.947a6.344 6.344 0 0 0-2.441.376c-.224.081-.447.177-.672.268-.03-.055-.063-.107-.09-.162-.232-.474-.512-.927-.574-1.471-.044-.386-.098-.771-.006-1.153.088-.367.203-.728.311-1.091.056-.187.017-.291-.162-.375a.735.735 0 0 0-.197-.065 3.04 3.04 0 0 0-1.293.096c-.15.044-.259.128-.292.294-.019.095-.058.187-.085.28-.111.391-.189.789-.368 1.161-.448.934-.96 1.832-1.485 2.724-.057.096-.116.191-.188.308-.184-.385-.38-.73-.44-1.136-.067-.458-.12-.915-.006-1.37.085-.339.195-.672.297-1.006.048-.159.026-.242-.118-.326a.696.696 0 0 0-.237-.092 2.904 2.904 0 0 0-1.338.11c-.136.044-.207.132-.248.272-.122.413-.226.836-.397 1.229a429.556 429.556 0 0 1-2.12 4.753c-.149.33-.323.649-.491.971-.043.081-.104.153-.158.23-.043-.05-.059-.085-.059-.119.001-.203-.023-.413.016-.609.117-.595.252-1.186.395-1.775.117-.486.254-.968.384-1.452.044-.162.044-.313-.072-.449-.195-.228-.603-.278-.845-.102l-.107.061.021-.172c.051-.37.061-.738-.04-1.102-.127-.454-.45-.715-.921-.701a1.98 1.98 0 0 0-.653.124c-.855.335-1.512.928-2.072 1.642a.64.64 0 0 1-.189.163c-.723.401-1.449.797-2.174 1.195l-.807.442c-.216-.206-.413-.421-.636-.602-.682-.556-1.375-1.098-2.061-1.648-.609-.487-1.198-.995-1.649-1.64-.336-.48-.552-1.005-.572-1.599-.026-.756.188-1.447.573-2.091.493-.823 1.164-1.483 1.903-2.082.781-.633 1.626-1.169 2.502-1.66 1.225-.686 2.486-1.293 3.837-1.694 1.386-.411 2.791-.646 4.241-.482.57.064 1.123.195 1.632.474.389.213.709.492.857.929.146.43.142.865.041 1.301-.206.883-.69 1.612-1.299 2.263-.998 1.067-2.216 1.793-3.588 2.273a9.888 9.888 0 0 1-2.441.521c-.682.057-1.35-.003-1.996-.241a2.597 2.597 0 0 1-1.1-.747c-.053-.063-.122-.13-.222-.072-.098.057-.115.15-.082.245.055.156.105.319.191.46.214.351.527.606.871.825.661.42 1.399.562 2.165.594 1.162.05 2.296-.123 3.413-.435 1.596-.445 2.983-1.231 4.096-2.471.927-1.033 1.588-2.198 1.73-3.605.069-.687-.005-1.359-.326-1.986-.349-.679-.903-1.183-1.566-1.531-.965-.506-2.008-.801-3.083-.801h-1.078c-1.303 0-2.562.373-3.786.819-.927.337-1.835.735-2.717 1.176-1.921.96-3.709 2.117-5.179 3.708-.732.793-1.352 1.668-1.708 2.697-.104.302-.203.625-.278.937zm6.981 8.551c-.083 1.115-.588 2.018-1.414 2.75-.465.412-.997.704-1.618.808-.225.037-.455.046-.673-.047-.311-.133-.381-.409-.387-.703-.009-.469.155-.893.38-1.297.294-.526.725-.927 1.185-1.302.725-.59 1.511-1.09 2.317-1.561l.061-.025c.125.46.184.914.149 1.377zm6.29-4.845a8.45 8.45 0 0 1-.236 1.057c-.36 1.194-.821 2.352-1.321 3.493-.092.211-.226.404-.343.604-.018.031-.045.058-.071.084-.145.143-.281.135-.354-.052a3.93 3.93 0 0 1-.182-.679c-.03-.154-.023-.316-.033-.474.01-1.123.352-2.145.934-3.095.24-.392.501-.765.899-1.014a1.62 1.62 0 0 1 .399-.177c.213-.06.343.038.308.252zm4.291 5.467l1.542-1.801c.064.669-1.073 2.004-1.542 1.801zM22.793 22c-.109.063-.228.108-.34.165-.102.053-.136 0-.139-.088a.61.61 0 0 1 .023-.18 3.874 3.874 0 0 1 1.162-1.872l.04-.02A1.65 1.65 0 0 1 22.792 22z"/></svg><svg id="icon-webpack-plain" width="32" height="32" x="64" y="96"><path fill="#ececec" d="M29.323 24.525L16.561 31.75v-5.628l7.94-4.372 4.823 2.775zm.875-.79V8.637l-4.67 2.7v9.703l4.668 2.692zm-27.52.79l12.75 7.22v-5.622l-7.942-4.372zm-.876-.79V8.637l4.67 2.7v9.703zM2.35 7.66L15.44.25v5.44l-8.455 4.65zm27.295 0L16.56.25v5.44l8.455 4.647 4.635-2.678zM15.44 24.843l-7.848-4.317v-8.545l7.848 4.52zm1.12 0l7.848-4.313v-8.55L16.56 16.5zM8.125 11L16 6.665 23.875 11 16 15.54 8.125 11z"/></svg><svg id="icon-wordpress-plain" width="32" height="32" x="96" y="96"><path fill="#ececec" d="M16.023 31.556c8.569-.013 15.505-6.983 15.505-15.581 0-8.458-6.904-15.424-15.153-15.572C7.712.249.473 7.278.471 15.802c-.003 8.77 6.903 15.766 15.552 15.754zm-.025-30.399c8.227-.003 14.781 6.681 14.779 15.07-.003 7.92-6.731 14.545-14.773 14.547-8.193.002-14.781-6.641-14.781-14.902 0-8.048 6.691-14.712 14.775-14.715zM9.789 8.974c.134.448-.242.604-.642.636-.421.033-.842.064-1.331.101l4.831 14.393c.116-.19.164-.243.185-.306.893-2.671 1.792-5.339 2.663-8.017.079-.244.04-.568-.047-.819-.461-1.33-1.013-2.631-1.417-3.977-.276-.921-.643-1.518-1.732-1.411-.185.018-.412-.381-.62-.587.251-.15.501-.426.754-.43 2.218-.034 4.437-.034 6.655.002.255.004.504.287.755.441-.22.201-.41.502-.667.58-.413.124-.87.101-1.364.145l4.837 14.39c.733-2.434 1.415-4.669 2.078-6.91.591-2 .239-3.868-.831-5.63-.322-.53-.716-1.044-.899-1.621-.207-.657-.379-1.405-.269-2.065.186-1.117 1.044-1.672 2.203-1.778C18.583.22 8.608 2.328 4.932 8.73c1.415-.065 2.766-.151 4.118-.169.255-.003.679.213.739.413zm2.53 19.493c-.03.086-.031.182-.055.326 2.736.759 5.419.704 8.165-.221l-4.195-11.49c-1.342 3.903-2.63 7.644-3.915 11.386zm-2.115-.52L3.884 10.61c-2.851 5.57-.682 14.067 6.32 17.337zm19.107-11.14c.201-2.633-.708-6.28-1.492-6.781-.087.969-.026 2.046-.305 3.029-.654 2.314-1.454 4.587-2.225 6.867-.837 2.478-1.708 4.945-2.564 7.416 4.023-2.385 6.234-5.904 6.586-10.531z"/></svg></svg>